<?xml version="1.0" standalone="no"?>
<!DOCTYPE svg PUBLIC "-//W3C//DTD SVG 1.1//EN" "http://www.w3.org/Graphics/SVG/1.1/DTD/svg11.dtd" >
<svg xmlns="http://www.w3.org/2000/svg">
<metadata>Generated by IcoMoon</metadata>
<defs>
<font id="icomoon" horiz-adv-x="1024">
<font-face units-per-em="1024" ascent="960" descent="-64" />
<missing-glyph horiz-adv-x="1024" />
<glyph unicode="&#x20;" horiz-adv-x="512" d="" />
<glyph unicode="&#xe600;" glyph-name="admisiones-alto-rendimiento" horiz-adv-x="1043" d="M1017.268 954.88h-773.765l-0.152-5.708-220.008-241.721h-5.291v-761.23h104.638v9.481l8.344-4.475 196.267 365.132v-3.755h185.553v18.963h-177.38l186.937 347.8v-718.924h9.481v-14.222h494.857v1008.659h-9.481zM242.612 920.178l-5.442-212.727h-188.188l193.631 212.727zM1007.787-34.816h-466.413v789.504l-17.825-33.185-406.528-756.319h-80.005v723.304h218.624l0.228 9.235 6.106 238.194h745.794v-970.733h0.019zM817.399 369.645h18.963v176.109h171.387v18.963h-171.387v176.090h-18.963v-176.090h-171.292v-18.963h171.292v-176.109z" />
<glyph unicode="&#xe601;" glyph-name="admisiones-bachillerato" horiz-adv-x="1043" d="M1037.737 230.158v728.006h-658.181v-7.207c-48.205 2.203-97.608-5.101-145.543-23.475l-12.095-4.637 7.902-10.279c1.352-1.778 3.748-4.888 6.82-8.965 5.12-6.782 10.24-13.66 15.012-20.19 0.908-1.256 0.908-1.256 1.835-2.512 10.279-14.162 17.35-24.731 18.606-27.841 1.159-2.898 1.816-10.646 2.512-28.402 0.058-1.546 0.058-1.546 0.116-3.091 0.754-18.335 1.488-27.068 3.439-33.985 1.217-4.251 1.739-13.64 1.488-25.967-0.135-6.376-0.444-13.196-0.869-20.132-0.251-3.999-0.483-7.11-0.715-9.641l-51.702-64.145-38.12-51.548-0.348-2.415-8.559-59.991-1.623-11.419 73.67 2.531 2.628 0.464 59.991 19.282 3.323 1.855 19.726 16.906c0.367-0.927 0.638-1.623 1.024-2.628 4.502-11.515 9.003-23.224 13.215-34.43 1.024-2.763 1.024-2.763 2.048-5.506 10.047-27.049 16.616-47.104 16.616-50.582 0-1.468-1.237-7.67-3.652-17.775-1.275-5.39-7.226-29.483-8.598-35.144-0.985-4.077-1.893-7.883-2.744-11.534-9.776-41.926-12.945-63.353-7.323-73.168 2.802-4.907 8.211-17.060 15.225-34.005 0.85-2.048 0.85-2.048 1.681-4.115 3.768-9.197 7.728-19.031 11.631-28.904 0.657-1.681 1.179-2.975 1.739-4.424-11.457 10.742-22.856 21.485-33.56 31.744-1.7 1.623-1.7 1.623-3.381 3.246-16.229 15.592-29.426 28.633-38.642 38.236-4.463 4.676-7.709 8.269-9.989 11.013 0.483 3.768-1.082 7.999-4.154 11.322-2.628 2.821-6.801 5.97-12.771 9.796-9.351 6.028-22.798 13.602-41.868 23.745-2.628 1.391-2.628 1.391-5.275 2.802-3.072 1.623-31.242 16.423-37.965 20.036-10.665 5.719-17.427 9.68-18.162 10.414-2.492 2.492-6.414 7.052-11.245 13.042-0.773 0.966-0.773 0.966-1.565 1.951-3.188 3.999-6.53 8.269-9.815 12.558-1.063 1.391-1.971 2.57-2.724 3.574l-6.047 60.261 14.8 86.596 2.106 12.288-58.271-4.85-20.422 29.657-15.92-10.955 26.759-38.893 44.592 3.71-12.887-75.563-0.077-2.589 6.453-64.28 0.251-2.686 1.604-2.145c0.889-1.179 2.434-3.227 4.463-5.874 3.362-4.386 6.782-8.772 10.066-12.887 0.811-1.005 0.811-1.005 1.604-2.009 5.236-6.492 9.506-11.457 12.597-14.549 2.782-2.802 9.177-6.55 22.683-13.795 6.82-3.652 35.067-18.49 38.062-20.074 2.628-1.391 2.628-1.391 5.236-2.802 18.625-9.931 31.705-17.292 40.477-22.953 2.608-1.681 4.618-3.091 6.202-4.309-0.019-0.251-0.116-0.464-0.097-0.715 0.039-2.029 0.58-3.613 1.41-5.236 0.811-1.584 2.009-3.323 3.69-5.39 2.666-3.362 6.762-7.883 12.23-13.582 9.409-9.854 22.798-23.030 39.202-38.796 1.7-1.642 1.7-1.642 3.4-3.285 12.481-11.96 25.87-24.576 39.26-37.077 4.676-4.386 9.023-8.443 12.926-12.037 0.406-0.386 0.676-0.618 1.043-0.966-145.118-8.965-285.445 76.008-340.258 218.962l-8.192 13.080h-19.321v-543.995l740.758 0.58 165.463 165.444 115.055 113.49v13.756h0.039zM382.435 321.835c-0.85 2.067-0.85 2.067-1.7 4.154-7.361 17.794-12.926 30.295-16.307 36.207-1.739 3.033 1.681 26.218 9.371 59.179 0.831 3.613 1.739 7.342 2.705 11.38 1.352 5.584 7.303 29.735 8.617 35.222 2.898 12.172 4.173 18.529 4.173 22.258 0 7.091-6.202 25.986-17.814 57.305-1.043 2.782-1.043 2.782-2.067 5.564-4.231 11.283-8.772 23.088-13.293 34.681-2.724 6.955-4.83 12.307-6.047 15.341l-5.004 12.52-38.777-33.27-56.861-18.277-49.268-1.681 6.569 46.157 34.99 47.297 55.161 68.415 0.27 2.917c0.251 2.705 0.618 7.284 0.985 13.042 0.444 7.207 0.773 14.297 0.908 20.963 0.29 14.278-0.29 24.962-2.222 31.667-1.352 4.772-2.048 13.003-2.705 29.445-0.058 1.546-0.058 1.546-0.135 3.091-0.85 21.407-1.468 28.749-3.883 34.797-2.145 5.333-9.293 16.036-20.924 32.034-0.927 1.275-0.927 1.275-1.874 2.55-4.424 6.067-9.158 12.404-13.911 18.683 141.389 48.128 293.907-1.546 381.121-115.287l-4.695 1.642-41.23-119.557-55.161-15.746-28.807-7.187-2.067-2.859c-0.792-1.082-2.087-2.975-3.748-5.506-2.763-4.193-5.506-8.694-8.076-13.331-2.859-5.178-5.352-10.221-7.323-15.070-4.965-12.153-6.704-22.393-3.536-30.875 8.308-22.045 18.142-36.806 31.222-42.003 1.14-0.464 3.188-3.014 6.666-9.003 0.811-1.43 0.811-1.43 1.681-2.917 6.917-12.018 11.496-17.563 20.016-20.403 7.67-2.55 14.201-2.821 29.773-2.241 0.734 0.019 0.734 0.019 1.449 0.058 8.714 0.309 13.293 0.27 17.64-0.367 2.454-0.348 4.695-0.213 6.801 0.27 0.27-10.549 1.063-19.243 2.376-27.435 0.406-2.531 1.604-9.081 1.681-9.525 0.425-2.473 0.58-4.019 0.56-5.371-0.019-0.754-0.097-1.449-0.251-2.203-0.097-0.425-4.115-4.54-10.916-9.834-1.352-1.043-2.821-2.164-4.598-3.478-0.908-0.696-5.777-4.289-7.11-5.275-2.724-2.029-4.772-3.632-6.55-5.101-6.646-5.487-9.544-8.83-9.544-14.606 0-0.657-0.29-1.565-2.898-9.506-1.159-3.458-1.932-6.067-2.57-8.772-1.352-5.796-1.778-10.878-0.811-15.708 1.198-5.931 3.516-11.245 7.709-18.896 0.927-1.662 0.927-1.662 1.835-3.265 3.381-6.047 4.753-8.675 5.989-11.728 0.792-2.009 1.855-4.057 3.13-6.144 2.029-3.304 4.637-6.685 7.67-10.105 3.864-4.386 7.612-7.922 10.414-10.375-30.179-27.049-65.459-49.422-105.569-64.802-29.136-11.167-58.851-17.698-88.489-20.654l7.013 3.864-4.309 23.591c-1.526 4.405-3.323 9.023-5.68 14.974-3.961 9.892-7.941 19.804-11.766 29.097v0zM618.187 479.338c-0.116 0.638-1.275 7.11-1.662 9.39-1.468 8.984-2.241 18.529-2.241 31.512 0 8.076-0.019 10.453-0.058 12.752-0.039 1.584-0.116 2.724-0.232 3.69-0.135 0.966-0.135 0.966-0.522 2.454-0.56 2.183-0.56 2.183-5.526 6.202-8.366 0.444-8.366 0.444-10.994-2.241-1.314-1.584-1.314-1.584-1.797-2.434-0.386-0.696-0.696-1.352-1.159-2.415-0.966-2.203-1.333-3.014-1.971-4.096-1.121-1.971-1.41-2.203-1.024-2.241-5.854 0.831-11.245 0.889-21.079 0.541-0.734-0.019-0.734-0.019-1.449-0.058-13.042-0.483-18.355-0.27-22.953 1.256-2.299 0.773-4.888 3.903-9.39 11.728-0.831 1.449-0.831 1.449-1.7 2.956-5.719 9.892-9.506 14.587-16.229 17.273-6.414 2.55-13.776 13.602-20.267 30.855-0.985 2.647 0.039 8.772 3.304 16.79 1.662 4.077 3.826 8.462 6.357 13.003 2.338 4.193 4.83 8.289 7.342 12.095 0.502 0.754 0.889 1.333 1.294 1.951l22.161 5.526 65.13 18.606 1.662 4.772 39.511 114.572c14.993-21.813 27.957-45.481 37.849-71.274 49.5-129.217 15.128-269.718-76.046-362.264l-3.613 0.908c-2.164 1.971-4.869 4.521-7.67 7.728-2.357 2.666-4.309 5.197-5.7 7.458-0.734 1.198-1.275 2.261-1.642 3.169-1.642 4.115-3.265 7.207-7.071 14.008-0.889 1.584-0.889 1.584-1.758 3.149-3.323 6.028-5.004 9.873-5.68 13.293-0.348 1.662-0.135 4.193 0.638 7.554 0.483 2.029 1.14 4.193 2.106 7.129 2.917 8.83 3.632 10.994 3.826 12.926 0.618 0.657 1.333 1.352 2.589 2.396 1.507 1.237 3.323 2.666 5.816 4.521 1.275 0.966 6.125 4.54 7.091 5.255 1.855 1.372 3.4 2.55 4.869 3.69 11.090 8.598 16.635 14.259 18.084 21.349 0.367 1.874 0.56 3.69 0.599 5.564 0.077 2.782-0.193 5.429-0.792 9.003v0zM911.051 118.639l-151.011-148.944v241.123h243.21l-92.199-92.179zM1018.416 230.158h-277.697v-273.91h-704.937v482.42c79.061-171.182 278.103-254.242 456.743-185.788 46.119 17.678 86.499 43.819 120.117 75.931l0.367-0.097 0.135 0.502c101.84 97.589 141.119 250.281 87.465 390.221-43.085 112.35-136.25 190.464-244.195 219.406h562.002v-708.685z" />
<glyph unicode="&#xe602;" glyph-name="admisiones-centro-pre" d="M1007.559 947.2l-717.559-0.588-161.83-161.83-113.474-111.957v-727.969h599.647v3.622c4.058-1.934 16.232 13.445 16.232 13.445-1.612 0.664-4.722 2.067-9.14 4.172-7.433 3.546-15.72 7.756-24.671 12.648-25.581 13.995-51.124 30.549-74.961 49.588-67.356 53.817-107.463 116.148-107.463 186.103 0 70.239 28.236 121.287 75.511 156.843 16.631 12.497 34.475 22.13 52.319 29.26 6.239 2.503 12.023 4.475 17.18 6.011 3.015 0.91 5.139 1.441 6.144 1.669 2.712 0.512 8.268 1.384 15.796 2.257 22.604 2.636 46.156 3.319 67.963 0.815 30.189-3.451 53.058-12.591 65.972-28.103l5.784-6.921 7.187 5.404c90.112 67.565 249.173-22.035 270.108-143.436 0 0 15.777 16.194 13.938 22.566h4.76v686.402h-9.444zM141.483 771.281l145.749 143.777v-236.715h-238.668l92.919 92.937zM712.211 410.453c-2.579 1.688-5.385 3.11-8.211 4.589l-4.191 12.553c-0.474 1.422-1.327 4.248-2.484 8.268-1.896 6.789-3.793 14.469-5.575 22.85-7.073 33.261-10.107 67.186-6.827 98.626 4.229 40.713 18.697 73.121 45.416 94.739 37.812 30.587 70.409 50.138 97.621 60.909 9.33 3.679 17.256 6.030 23.817 7.301 0.265 0.057 0.398 0.057 0.626 0.095 0.284-0.777 0.512-1.346 0.834-2.219 2.617-7.263 5.234-15.512 7.68-24.576 11.624-42.913 15.265-87.249 6.239-128.303-15.208-69.158-64.417-119.599-157.772-144.062l2.825-10.771zM723.646 401.029c-1.252 1.214-2.522 2.446-3.868 3.584 9.292 2.598 18.28 5.367 26.776 8.457-7.927-3.205-15.55-7.187-22.907-12.041v0zM998.078 296.467c-45.909 89.619-156.843 148.423-242.953 120.036 74.183 29.658 116.3 79.701 130.579 144.687 9.785 44.487 5.916 91.724-6.447 137.33-2.598 9.595-5.385 18.337-8.173 26.074-1.707 4.684-3.034 8.040-3.812 9.88l-2.484 5.708h-6.22c-6.978 0-19.551-2.465-37.547-9.576-29.108-11.511-63.355-32.047-102.59-63.81-31.099-25.164-47.654-62.18-52.357-107.52-3.47-33.318-0.341-68.76 6.959-103.462l-89.524 89.543-13.407-13.426 106.174-106.193c-7.756 1.934-16.043 3.413-24.823 4.399-23.476 2.674-48.412 1.972-72.325-0.815-8.002-0.948-13.995-1.896-17.408-2.522-1.745-0.398-4.305-1.043-7.756-2.067-5.689-1.707-12.004-3.887-18.773-6.599-19.323-7.699-38.647-18.129-56.699-31.706-51.826-38.969-83.077-95.479-83.077-171.994 0-76.781 43.16-143.853 114.574-200.932 23.855-19.077 49.342-35.556 74.847-49.702h-551.177v695.561h272.536v268.876h691.883v-631.77z" />
<glyph unicode="&#xe603;" glyph-name="admisiones-examen" d="M1001.927 874.761l-6.713 6.713-51.257-51.238-124.34 124.321-13.407-13.407 137.747-137.747 6.713 6.694 41.889 41.87v-609.299h-247.41v-282.017h-356.807v148.385h-252.606v-148.385h-113.929v970.733h686.725l-404.385-409.543v-92.217h-157.563v-214.566h252.644v124.985h70.466l444.245 444.151-169.756 169.737-13.445-0.038-3.489-3.527h-724.404v-1008.678h151.855v148.385h214.68v-148.385h389.404l2.807 3.034 249.932 269.179v660.859h-9.595zM380.264 234.022h-214.718v176.64h138.6v-57.666l-49.038-58.008-36.58 59.487-16.156-9.918 50.309-81.787 65.346 77.255h62.255v-106.003h-0.019zM461.843 359.007h-138.733v155.060l412.065 417.318h2.313v2.351l0.038 0.038 149.599-149.58-425.282-425.188zM992.559 221.336l-228.447-246.025v248.415h228.447v-2.389z" />
<glyph unicode="&#xe604;" glyph-name="admisiones-primeros-puestos" d="M1008.868 953.553l-115.94 0.038v-3.793l-99.575-68.513 2.427-6.846 34.342-97.261-110.383 2.863-2.067-6.959-29.393-98.873-87.609 67.167-5.784-4.418-81.863-62.711-31.403 105.851-110.383-2.807 36.788 104.088-102.248 70.409-6.751-9.804v11.719l-289.356 0.076v-9.481l-0.19-742.286v-9.481l5.291-0.019 219.989-241.759 0.152-5.727 783.189-0.19v9.481l0.247 989.753v9.481h-9.481zM444.985 760.168l22.585 0.569 35.119-118.31 97.982 75.055 97.944-75.093 35.176 118.31 30.549-0.796-0.133-533.504-149.049 141.615-6.466-5.272-163.84-133.86 0.133 531.285zM40.41 192.512l188.188-0.038 5.423-212.745-193.612 212.783zM999.14-36.181l-745.756 0.19-6.068 238.194-0.247 9.254-218.624 0.019 0.19 723.342 268.459-0.076 88.216-60.757-41.131-116.376 81.844 2.086-0.133-550.798v-19.987l188.321 153.847 168.941-160.54v22.073l0.133 555.103 73.861-1.915-4.589 12.99-36.485 103.443 88.235 60.719 95.080-0.038-0.247-970.771zM607.573 801.090c82.641-0.019 149.694 66.996 149.732 149.656h-18.963c-0.038-72.192-58.577-130.712-130.769-130.693-72.211 0.019-130.712 58.558-130.693 130.75h-18.963c-0.019-82.66 66.996-149.694 149.656-149.713v0zM621.037 420.409l68.475-0.019 0.019 18.963-63.033 0.019 0.038 159.706v22.888l-70.58-70.542 13.407-13.407 38.21 38.172-0.038-136.818-54.936 0.019-0.019-18.963 68.456-0.019z" />
<glyph unicode="&#xe605;" glyph-name="admisiones-traslado" d="M1017.325 671.953v1.517l-111.692 110.175-163.631 163.593-16.194 0.569h-710.846v-942.782h9.311l9.576-1.081c17.958 160.009 82.337 269.293 176.754 337.711 32.996 23.893 67.394 40.998 101.111 52.414 11.776 3.982 22.604 6.959 32.237 9.083 3.337 0.74 6.296 1.308 8.78 1.764 2.655 0.417 11.112 9.861 11.112 9.861v113.929l214.547-211.418-210.735-236.828v143.398l-10.126-0.702c-2.351-0.152-6.561-0.588-12.364-1.384-9.595-1.327-20.271-3.281-31.744-5.973-32.768-7.661-65.555-19.703-96.218-37.111-11.776-6.675-23.021-14.033-33.678-22.111-22.623-17.161-41.87-36.428-57.951-57.401-23.988-31.289-39.917-64.815-49.342-98.38-3.3-11.776-5.556-22.718-6.978-32.597-0.853-5.992-1.233-10.373-1.327-12.857l-0.379-9.861h949.779v726.471zM744.77 915.665l147.115-145.105 91.572-91.572h-238.687v236.677zM998.362-35.556h-910.45c0.057 0.398 0.076 0.645 0.133 1.081 1.289 9.083 3.375 19.191 6.447 30.132 8.799 31.327 23.704 62.692 46.137 91.951 15.076 19.665 33.109 37.736 54.367 53.855 9.975 7.547 20.537 14.469 31.592 20.745 28.956 16.403 60.056 27.857 91.193 35.138 10.885 2.56 20.973 4.399 30.018 5.651 0.36 0.057 0.569 0.076 0.929 0.114v-172.411l16.574 18.603 239.294 268.857-259.698 255.848v-151.324c-1.669-0.341-3.148-0.588-5.025-1.005-10.278-2.276-21.769-5.442-34.209-9.652-35.442-12.004-71.528-29.943-106.155-55.012-77.312-55.979-135.149-138.24-165.566-250.615v822.462h691.883v-268.838h272.555v-695.58h-0.019z" />
<glyph unicode="&#xe606;" glyph-name="arrow-down" horiz-adv-x="1257" d="M575.4 22.336l58.456-89.884 603.734 928.315-116.913 77.327-545.277-838.431h116.913l-545.277 838.431-116.913-77.327 545.277-838.431z" />
<glyph unicode="&#xe607;" glyph-name="arrow-left" horiz-adv-x="834" d="M89.311 510.119l-73.239-47.631 756.404-491.931 63.007 95.262-683.166 444.3v-95.262l683.166 444.3-63.007 95.262-683.166-444.3z" />
<glyph unicode="&#xe608;" glyph-name="arrow-right" horiz-adv-x="872" d="M786.805 412.18l74.826 47.866-769.378 492.166-62.279-95.732 694.552-444.3v95.732l-694.552-444.3 62.279-95.732 694.552 444.3z" />
<glyph unicode="&#xe609;" glyph-name="arrow-up" horiz-adv-x="1202" d="M665.353 859.641l-56.19 87.84-577.76-903.183 112.381-73.11 521.57 815.343h-112.381l521.57-815.343 112.381 73.11-521.57 815.343z" />
<glyph unicode="&#xe60a;" glyph-name="arrows-down" horiz-adv-x="747" d="M333.645 12.223l34.929-54.603 359.148 561.438-69.858 45.447-324.219-506.835h69.858l-324.219 506.835-69.858-45.447 324.219-506.835zM342.13 402.47l34.758-53.445 358.977 551.971-69.516 45.978-324.219-498.526h69.516l-324.219 498.526-69.516-45.978 324.219-498.526z" />
<glyph unicode="&#xe60b;" glyph-name="arrows-left" horiz-adv-x="1317" d="M82.438 500.826l-72.154-46.156 741.9-474.589 60.055 92.313-669.746 428.432v-92.313l669.746 428.432-60.055 92.313-669.746-428.432zM598.121 489.614l-70.623-45.93 729.39-474.362 60.757 91.86-658.767 428.432v-91.86l658.767 428.432-60.757 91.86-658.767-428.432z" />
<glyph unicode="&#xe60c;" glyph-name="carreras-malla" d="M368.819 610.907l-2.561-6.218 155.017 156.237-6.266-2.61h508.114l-0.060 8.887-1.279 190.638h-992.859v-994.139h992.918v197.084h-661.851l8.828-8.828v458.947zM351.164 143.132h661.851l-8.828 8.828v-179.429l8.828 8.828h-975.263l8.828-8.828v976.484l-8.828-8.828h975.263l-8.827 8.768 1.221-181.87 8.827 8.887h-499.227l-6.266-2.61-155.017-156.237-2.561-6.218v-467.775zM521.111 602.080h8.828v162.624h-17.655v-153.796l8.828 8.828h-159.899v-17.655h159.899z" />
<glyph unicode="&#xe60d;" glyph-name="carreras-menciones" d="M512 813.244c73.251 0 132.767 60.554 132.767 135.77h-17.655c0-65.533-51.68-118.115-115.112-118.115-63.005 0-115.112 53.369-115.112 118.115h-17.655c0-74.403 59.915-135.77 132.767-135.77zM26.483-27.469v-8.828h971.034v994.139h-205.462l-5.236-1.721-74.048-54.553 42.877-81.178 6.275 12.817-83.466-14.693-1.292-93.969 11.289 8.356-87.453 25.401-35.194-85.444 14.089 3.18-67.897 61.518-67.897-61.518 14.089-3.18-35.194 85.444-87.453-25.401 11.29-8.477v94.092l-84.782 14.695 6.298-12.821 42.877 81.178-74.048 54.553-5.236 1.721h-205.462v-985.311zM35.31 940.187h196.634l-5.236 1.721 67.928-50.045-2.57 11.23-45.002-85.202 89.436-15.502-7.32 8.698v-98.419l91.135 26.471-10.625 5.115 36.959-89.731 71.276 64.58h-11.854l71.276-64.58 36.959 89.731-10.625-5.115 90.975-26.424 1.351 98.251-7.296-8.573 88.205 15.528-44.987 85.173-2.57-11.23 67.928 50.045-5.236-1.721h196.634l-8.828 8.828v-976.484l8.828 8.828h-953.379l8.828-8.828v976.484l-8.828-8.828zM329.181 435.14v-21.678l189.136 193.719h-12.633l189.136-193.719v321.946h-17.655v-300.269l15.144 6.167-180.308 184.678-180.308-184.678 15.144-6.167v299.048h-17.655v-299.048zM374.466 303.315v-21.678l143.85 147.336-12.604-0.029 143.821-145.943v204.625h-17.655v-183.091l15.115 6.196-135.023 137.015-134.993-138.265 15.144-6.167v184.311h-17.655v-184.311z" />
<glyph unicode="&#xe60e;" glyph-name="carreras-perfil" d="M44.138 949.015l-8.828-8.828h953.379l-8.828 8.828v-976.484l8.828 8.828h-269.33l8.828-8.828v294.166c0 75.624-59.915 136.991-133.959 136.991h-6.66l-84.057-294.467 16.974 0.010-84.062 293.237h-6.653c-74.043 0-133.959-61.367-133.959-136.991v-294.166l8.828 8.828h-269.33v-8.828h8.828v977.704zM26.483-37.517h286.985v302.993c0 65.966 52.107 119.336 116.303 119.336l-8.486 6.395 90.733-316.506 90.699 317.736-8.489-6.404c64.197 0 116.303-53.369 116.303-119.336v-302.993h286.985v994.139h-971.034v-995.359zM609.236 587.716c0-59.080-46.573-107.13-104.386-107.13-58.238 0-104.386 47.266-104.386 107.13v26.853h-17.655v-26.853c0-69.521 53.957-124.785 122.041-124.785 67.689 0 122.041 56.076 122.041 124.785v26.853h-17.655v-26.853zM704.353 746.394v8.828h-396.138v-17.655h387.31l-8.828 8.828v-93.987h17.655v93.987zM718.654 640.202c0 12.918-10.307 23.475-23.128 23.475s-23.128-10.557-23.128-23.475c0-12.918 10.307-23.475 23.128-23.475s23.128 10.557 23.128 23.475zM690.052 640.202c0 3.261 2.498 5.82 5.473 5.82s5.473-2.559 5.473-5.82c0-3.261-2.498-5.82-5.473-5.82s-5.473 2.559-5.473 5.82z" />
<glyph unicode="&#xe60f;" glyph-name="carreras-profesores" horiz-adv-x="1059" d="M660.543 637.484c0 67.45-55.915 122.041-124.785 122.041s-124.785-54.592-124.785-122.041c0-67.45 55.915-122.041 124.785-122.041s124.785 54.592 124.785 122.041zM428.628 637.484c0 57.603 47.917 104.386 107.13 104.386s107.13-46.783 107.13-104.386c0-57.603-47.917-104.386-107.13-104.386s-107.13 46.783-107.13 104.386zM35.027-28.69v-8.828h305.718v348.469c0 64.197 53.369 116.303 119.336 116.303h48.824l-8.81 9.382-21.971-349.175 2.643-6.871 54.991-53.69 54.991 53.69 2.645 6.84-20.75 349.175-8.812-9.351h63.471c65.789 0 119.336-51.936 119.336-115.112v-348.469h282.526v969.843h-994.139v-962.207zM43.855 915.862h976.484l-8.828 8.828v-952.188l8.828 8.828h-264.871l8.828-8.828v339.641c0 73.049-61.57 132.767-136.991 132.767h-72.839l21.306-358.526 2.645 6.84-48.824-47.669h12.334l-48.824 47.669 2.643-6.871 22.561 358.557h-58.225c-75.624 0-136.991-59.915-136.991-133.959v-339.641l8.828 8.828h-288.063l8.828-8.828v953.379l-8.828-8.828z" />
<glyph unicode="&#xe610;" glyph-name="carreras-que-es" horiz-adv-x="1097" d="M52.035 948.761l-9.143-9.143h1011.358l-9.143 9.143v-999.024l9.143 9.143h-187.101l9.143-9.143v580.683l-2.693 6.48-166.874 166.088-6.45 2.663h-478.16v-755.914l9.143 9.143h-188.365l9.143-9.143v999.024zM33.75-59.406h206.651v755.914l-9.143-9.143h469.017l-6.45 2.663 166.874-166.088-2.693 6.48v-589.826h205.387v1017.31h-1029.644v-1017.31zM691.132 527.922v-9.143h176.017v18.286h-166.874l9.143-9.143v164.839h-18.286v-164.839zM523.287 573.725l-9.143 9.143v-182.322l9.143 9.143h-184.573l9.143-9.143v182.322l-9.143-9.143h184.573zM329.572 592.011v-200.608h202.859v200.608h-202.859z" />
<glyph unicode="&#xe611;" glyph-name="footer-book" horiz-adv-x="731" d="M707.048 702.448l-461.804 242.036c-60.235 20.17-190.745-40.339-220.863-90.764-20.078-30.255-20.078-50.424-20.078-60.509l10.039-534.497c0-10.085 10.039-30.255 30.118-30.255 30.118-20.17 411.608-252.121 421.647-262.206 10.039 0 10.039-10.085 20.078-10.085h20.078c10.039 10.085 20.078 20.17 20.078 30.255v564.752c0 10.085-10.039 20.17-20.078 30.255l-421.647 231.952c0 10.085 20.078 30.255 60.235 50.424s60.235 10.085 70.275 10.085c0 0 401.569-211.782 411.608-221.867s10.039-10.085 10.039-20.17v-534.497c0-30.255 30.118-40.339 50.196-40.339s40.157 20.17 40.157 40.339v574.836c-10.039 10.085-10.039 20.17-20.078 30.255v0 0z" />
<glyph unicode="&#xe612;" glyph-name="footer-email" horiz-adv-x="1497" d="M53.638 833.969c40.229-27.569 603.429-330.831 616.838-344.615 26.819-13.785 53.638-13.785 80.457-13.785s53.638 0 80.457 13.785c26.819 13.785 576.61 317.046 616.838 344.615s80.457 96.492 0 96.492h-1394.59c-80.457-13.785-40.229-82.708 0-96.492v0zM1461.638 654.769c-40.229-27.569-603.429-330.831-630.248-344.615s-53.638-13.785-80.457-13.785c-26.819 0-40.229 0-80.457 13.785-26.819 13.785-590.019 317.046-630.248 344.615s-40.229 0-40.229-13.785v-620.308c0-41.354 40.229-82.708 80.457-82.708h1327.543c40.229 0 80.457 41.354 80.457 82.708v620.308c0 13.785 0 41.354-26.819 13.785v0z" />
<glyph unicode="&#xe613;" glyph-name="footer-facebook" horiz-adv-x="417" d="M278.123 488.201v-516.804h-215.546v516.804h-62.578v169.908h62.578v63.716c0 99.113 62.578 212.385 215.546 212.385h111.249v-184.067h-76.484c-27.812 0-41.719-14.159-41.719-42.477v-49.557h118.202v-169.908h-111.249z" />
<glyph unicode="&#xe614;" glyph-name="footer-gt" horiz-adv-x="878" d="M9.143-52.785v325.242l451.657 179.444-451.657 179.444v325.242l868.571-370.103v-269.166l-868.571-370.103z" />
<glyph unicode="&#xe615;" glyph-name="footer-linkedin" horiz-adv-x="914" d="M7.314 645.486h197.486v-680.229h-197.486v680.229zM204.8 835.657c0-52.514-42.571-95.086-95.086-95.086s-95.086 42.571-95.086 95.086c0 52.514 42.571 95.086 95.086 95.086s95.086-42.571 95.086-95.086zM885.029-42.057h-197.486v387.657c0 51.2-43.886 95.086-95.086 95.086s-95.086-43.886-95.086-95.086v-387.657h-197.486v680.229h197.486v-117.029c43.886 58.514 102.4 124.343 168.229 124.343 124.343 0 219.429-109.714 219.429-241.371v-446.171z" />
<glyph unicode="&#xe616;" glyph-name="footer-plus" horiz-adv-x="986" d="M964.161 347.791h-383.473v-392.323h-197.215v392.323h-383.473v201.766h383.473v392.323h197.215v-392.323h383.473v-201.766z" />
<glyph unicode="&#xe617;" glyph-name="footer-twitter" horiz-adv-x="1170" d="M1164.713 848.291c-45.279-18.618-90.558-37.236-135.837-37.236 45.279 27.927 90.558 74.473 108.669 139.636-45.279-27.927-99.614-46.545-153.948-55.855-45.279 37.236-108.669 65.164-172.060 65.164-135.837 0-235.45-111.709-235.45-242.036 0-18.618 0-37.236 9.056-55.855-199.227 9.309-371.287 111.709-489.012 251.345-27.167-37.236-45.279-74.473-45.279-121.018 0-83.782 45.279-158.255 108.669-204.8-36.223 0-72.446 9.309-108.669 27.927v0c0-121.018 81.502-214.109 190.171-242.036-18.112-9.309-45.279-9.309-63.39-9.309h-45.279c27.167-93.091 117.725-167.564 226.395-167.564-81.502-65.164-181.116-102.4-298.841-102.4h-54.335c108.669-65.164 226.395-111.709 362.231-111.709 434.678 0 679.184 372.364 679.184 698.182v27.927c45.279 46.545 81.502 83.782 117.725 139.636v0z" />
<glyph unicode="&#xe618;" glyph-name="ing-electronica" d="M207.597 208.064l-0.828 13.243h-120.612c-26.097 0-25.423-0.674-25.423 25.423 0 50.393-4.723 45.197 42.372 45.197h107.343v110.168h-124.292c-23.273 0-22.599-0.674-22.599 22.599-2.454 51.867-6.131 48.022 45.197 48.022h104.519v110.168h-121.468c-27.641 0-25.891-1.86-28.29 29.332l0.042 27.165c0 13.536 3.657 16.949 16.949 16.949h120.677l3.020 10.066c1.374 4.578 2.661 9.391 4.032 14.967 0.935 3.804 1.767 7.349 3.413 14.444 5.614 24.060 9.28 34.652 15.3 41.876 4.611 5.534 12.883 8.92 32.501 13.61 24.35 5.821 27.109 6.539 37.746 10.407l9.297 3.381v108.762c0 27.421-2.264 25.423 28.248 25.423h16.949c27.641 0 25.891 1.86 28.29-29.332l-0.042-106.26v-14.124h110.168v121.468c0 28.922-0.674 28.248 28.248 28.248h22.599c14.798 0 19.774-4.976 19.774-19.774v-127.117h112.993v127.117c0 17.623 4.976 22.599 22.599 22.599 54.346 0 48.022 6.324 48.022-48.022v-92.429l10.066-3.020c4.511-1.353 9.224-2.617 14.932-4.036 2.731-0.679 5.229-1.283 10.328-2.508 26.451-6.372 37.432-10.514 45.082-18.163 7.717-7.717 12-19.239 18.127-45.96 4.338-18.919 4.485-19.542 6.482-26.864l2.838-10.408h115.307c23.273 0 22.599 0.674 22.599-22.599v-28.248c0-17.498-4.466-21.702-21.039-19.86l-125.852 0.086v-110.168h124.292c23.498 0 23.293 0.192 25.481-23.877l-0.058-18.495c0-28.922 0.674-28.248-28.248-28.248h-121.468v-110.168h121.468c28.922 0 25.423 3.499 25.423-25.423v-22.599c0-24.647 2.195-22.599-22.599-22.599h-119.489l-1.819-12.008c-2.864-18.9-3.992-26.097-5.421-34.193-8.151-46.187-10.251-47.777-66.763-51.771-3.579-0.253-6.543-0.453-13.66-0.928l-13.185-0.879v-117.733c0-5.005-1.671-13.274-4.16-20.43-1.144-3.288-2.344-5.99-3.307-7.567 0.744 1.22 2.192 2.574 7.467 2.574-21.361-2.286-37.612-1.384-74.711 2.738 5.32 0.086 6.882-1.699 8.43-4.648-0.481 0.917-1.154 2.625-1.805 4.71-1.532 4.903-2.535 10.457-2.535 14.149v127.117h-110.168v-124.292c0-24.674-0.661-25.423-22.599-25.423h-5.65c-47.581 0-42.372-4.713-42.372 39.548v110.168h-110.168v-124.292c0-23.273 0.674-22.599-22.599-22.599-51.867-2.454-48.022-6.131-48.022 45.197l-0.596 4.059c-3.587 11.956-5.75 25.254-6.855 40.733-0.848 11.874-1.023 21.573-1.023 42.779v12.782l-12.719 1.272c-81.146 8.115-81.153 8.121-86.178 88.521zM278.246 105.49c0-21.873 0.184-32.028 1.095-44.791 1.243-17.4 3.729-32.682 7.975-46.837l-0.596 4.059c0-67.437 9.617-76.636 76.942-73.43 38.202-0.016 50.175 11.957 50.175 50.831v110.168l-14.124-14.124h81.92l-14.124 14.124v-96.044c0-60.527 8.034-67.796 70.621-67.796h5.65c38.381 0 50.847 14.128 50.847 53.672v110.168l-14.124-14.124h81.92l-14.124 14.124v-112.993c0-18.787 7.37-42.372 22.599-42.372 37.612-4.266 55.259-5.246 77.83-2.738 15.759-0.086 26.689 31.336 26.689 53.585v104.519l-13.185-14.093c7.134 0.476 10.143 0.679 13.772 0.935 68.575 4.846 81.996 15.009 92.59 75.040 1.484 8.41 2.631 15.722 5.532 34.871l-13.965-12.008h107.343c39.976 0 50.847 10.146 50.847 50.847v22.599c0 44.523-9.148 53.672-53.672 53.672h-107.343l14.124-14.124v81.92l-14.124-14.124h107.343c44.523 0 56.497 11.973 56.497 56.497v19.774c-3.555 39.741-15.401 50.847-53.672 50.847h-110.168l14.124-14.124v81.92l-14.124-14.124h110.168c32.083-3.652 50.847 14.009 50.847 48.022v28.248c0 38.874-11.973 50.847-50.847 50.847h-104.519l13.626-10.408c-1.846 6.77-1.986 7.361-6.201 25.745-7.342 32.022-12.82 46.754-25.686 59.621-12.736 12.736-26.715 18.009-58.441 25.651-5.1 1.225-7.5 1.805-10.128 2.459-5.306 1.319-9.61 2.473-13.631 3.68l10.066-13.528v81.92c0 69.947-6.324 76.27-76.27 76.27-33.224 0-50.847-17.623-50.847-50.847v-112.993l14.124 14.124h-84.745l14.124-14.124v112.993c0 30.399-17.623 48.022-48.022 48.022h-22.599c-44.523 0-56.497-11.973-56.497-56.497v-107.343l14.124 14.124h-81.92l14.124-14.124v107.343c-3.514 46.221-13.185 56.497-56.497 56.497h-16.949c-45.381 0-56.497-9.808-56.497-53.672v-98.869l9.297 13.274c-9.168-3.334-11.648-3.979-34.66-9.48-25.568-6.112-37.7-11.079-47.634-23-9.921-11.906-14.439-24.956-21.109-53.541-1.649-7.107-2.442-10.486-3.335-14.118-1.266-5.149-2.436-9.522-3.658-13.595l13.528 10.066h-110.168c-28.475 0-45.197-15.608-45.197-45.197v-28.248c3.514-46.221 13.185-56.497 56.497-56.497h107.343l-14.124 14.124v-81.92l14.124 14.124h-90.394c-67.437 0-76.636-9.617-73.43-76.942-0.016-38.202 11.957-50.175 50.831-50.175h110.168l-14.124 14.124v-81.92l14.124 14.124h-93.219c-63.329 0-70.621-8.020-70.621-73.446 0-41.698 11.973-53.672 53.672-53.672h107.343l-14.097 13.243c5.913-94.611 17.006-105.411 111.56-114.867l-12.719 14.054zM749.992 195.884h14.124v485.87h-301.172l12.075-21.132c2.296-4.019 4.343-8.141 6.517-13.009 1.248-2.795 5.199-12.1 5.505-12.804 5.039-11.589 9.166-18.678 15.677-25.189 12.318-15.535 26.446-30.362 50.34-53.687 13.204-12.838 19.665-19.143 25.93-25.408 11.351-11.351 15.637-21.828 15.637-38.035 0-16.743 6.286-33.805 16.949-48.022 13.368-20.092 12.751-43.545-1.513-57.809-16.465-14.365-41.931-14.365-56.296 0-16.767 14.712-17.404 39.586-2.183 56.982 24.54 28.046 24.54 56.252-0.642 81.434-3.641 3.641-7.36 7.486-12.508 12.899-6.424 6.776-9.878 10.415-13.075 13.739-11.028 11.469-19.739 19.931-28.884 27.77-31.849 28.669-43.847 51.101-37.754 79.536l1.61 7.513-5.433 5.433c0.875-1.171 1.312-2.264 1.312-4.338v14.124h-175.139v-485.87h251.44l2.458 11.060c6.498 29.239 0.351 48.447-20.749 69.548-7.751 6.922-14.613 13.626-23.825 23.090-2.349 2.413-10.317 10.664-11.333 11.712-15.28 15.757-25.188 25.14-36.779 34.155-11.971 12.125-17.146 22.946-17.146 39.698 0 18.034-7.129 38.403-18.261 49.535-14.452 18.758-14.452 41.844 0 56.296 15.165 15.165 40.651 16.472 56.982 2.183 17.087-14.951 18.874-37.59 3.802-56.969-27.131-33.912-26.366-56.102 3.986-86.455 4.112-4.112 8.265-8.418 16.877-17.397 15.975-16.556 26.397-26.259 38.573-34.956 35.218-32.148 44.449-50.61 34.276-83.163l-5.73-18.337h194.351zM588.334 205.795c14.273 45.673 0.235 73.748-43.528 113.533-11.686 8.467-21.104 17.235-35.955 32.627-8.546 8.912-12.907 13.434-17.23 17.757-19.99 19.99-20.196 25.969-1.783 48.985 24.257 31.186 21.132 70.777-7.378 95.723-27.693 24.232-70.031 22.061-95.558-3.467-25.096-25.096-25.096-64.156-1.162-94.929 6.544-6.699 11.149-19.854 11.149-30.876 0-24.85 8.478-42.577 26.735-60.834 11.607-9.166 20.729-17.805 35.158-32.684 0.98-1.011 8.975-9.289 11.37-11.75 9.646-9.91 16.946-17.042 24.696-23.931 13.856-13.89 16.883-23.352 12.545-42.876l13.788 11.060h-225.986l14.124-14.124v457.622l-14.124-14.124h146.891v14.124h-14.124c0-4.545 1.497-8.287 3.785-11.719 1.114-1.67 2.219-2.96 3.177-3.918l9.987 9.987-13.811 2.959c-8.714-40.664 7.902-71.728 46.734-106.677 8.59-7.368 16.71-15.256 27.163-26.127 3.123-3.248 6.502-6.808 12.967-13.626 5.297-5.57 9.162-9.565 13.004-13.407 14.365-14.365 14.365-25.707-0.642-42.858-25.17-28.766-24.074-71.501 4.154-96.201 24.496-24.54 66.826-24.54 94.872 0 25.13 25.086 26.14 63.439 5.276 94.735-7.615 10.19-11.752 21.418-11.752 31.713 0 23.655-7.23 41.329-23.911 58.009-6.407 6.407-13.011 12.853-26.172 25.648-23.119 22.568-36.611 36.727-49.056 52.284-4.439 4.561-7.052 9.048-10.788 17.641-0.212 0.488-4.241 9.978-5.618 13.060-2.528 5.661-4.977 10.593-7.784 15.505l-12.263-21.132h262.709l-14.124 14.124v-457.622l14.124 14.124h-175.139l13.481-18.337z" />
<glyph unicode="&#xe619;" glyph-name="ing-energia" d="M398.748 572.897c-7.472 7.558-15.065 15.258-25.396 25.746-12.724 12.921-19.448 19.749-25.494 25.881-20.683 20.981-36.206 36.65-51.575 52.019l-19.321 19.321-7.040-26.402c-5.179-19.421-9.732-34.643-20.304-68.707-10.696-34.465-15.332-49.963-20.656-69.927l15.222-4.059 11.14 11.14c-4.699 4.699-6.415 6.349-8.931 8.446-3.381 2.818-6.779 5.039-10.917 7.108l-7.045-14.091 11.437 10.835c-19.464 20.546-92.871 99.287-85.399 91.303-34.921 37.312-61.536 65.093-88.19 91.747-5.864 5.864-6.579 9.438-2.496 21.688 3.744 12.152 31.395 104.865 41.051 135.766l-27.264-5.235c49.221-60.579 82.792-103.057 116.202-147.604l18.851-25.135 8.865 30.142c6.548 22.263 11.791 39.696 23.594 78.646 11.828 39.031 17.087 56.52 23.668 78.893l-28.899-3.181c43.906-79.369 60.322-109.866 158.133-292.71 32.835-61.381 55.231-103.031 78.119-145.144l2.702-3.617c-4.007 4.007-4.007 9.98-1.669 13.877 0.835 1.23 0.835 1.23 1.669 2.101l11.14-11.14 10.878 11.396c-30.536 29.148-61.067 59.414-102.074 100.898zM490.201 438.58l10.884 10.884c1.184 1.221 1.184 1.221 3.069 3.968 4.438 7.397 4.438 17.105-3.069 24.613l-11.14-11.14 13.842 7.523c-22.847 42.038-45.215 83.636-78.020 144.96-97.896 183.004-114.335 213.544-158.345 293.1l-18.257 33.003-10.642-36.183c-6.548-22.263-11.791-39.696-23.594-78.646-11.828-39.031-17.087-56.52-23.668-78.893l27.717 5.007c-33.701 44.935-67.499 87.7-116.955 148.568l-18.509 22.78-8.755-28.015c-9.733-31.145-37.411-123.947-40.98-135.549-7.62-22.848-4.397-38.966 10.219-53.582 26.364-26.364 52.762-53.917 87.465-90.998-7.556 8.074 65.964-70.789 85.53-91.442l4.391-3.256c1.966-0.983 3.323-1.87 4.837-3.132 1.501-1.251 2.857-2.554 6.823-6.52l19.321-19.321 7.040 26.402c5.179 19.421 9.732 34.643 20.304 68.707 10.696 34.465 15.332 49.963 20.656 69.927l-26.362-7.080c15.306-15.306 30.782-30.926 51.416-51.858 6.039-6.127 12.757-12.948 25.485-25.873 10.342-10.5 17.948-18.212 25.435-25.786 41.203-41.682 71.929-72.142 102.726-101.539l11.134-10.628zM606.347 342.008c7.472-7.558 15.065-15.258 25.396-25.746 12.724-12.921 19.448-19.749 25.494-25.881 20.683-20.981 36.206-36.65 51.575-52.019l19.321-19.321 7.040 26.402c5.179 19.421 9.732 34.643 20.304 68.707 10.696 34.465 15.332 49.963 20.656 69.927l-15.222 4.059-11.14-11.14c4.699-4.699 6.415-6.349 8.931-8.446 3.381-2.818 6.779-5.039 10.917-7.108l7.045 14.091-11.437-10.835c19.464-20.546 92.871-99.287 85.399-91.303 34.921-37.312 61.536-65.093 88.19-91.747 5.864-5.864 6.579-9.438 2.496-21.688-3.744-12.152-31.395-104.865-41.051-135.766l27.264 5.235c-49.221 60.579-82.792 103.057-116.202 147.604l-18.851 25.135-8.865-30.142c-6.548-22.263-11.791-39.696-23.594-78.646-11.828-39.031-17.087-56.52-23.668-78.893l28.899 3.181c-43.906 79.369-60.322 109.866-158.133 292.71-32.835 61.381-55.231 103.031-78.119 145.144l-13.842-7.523h15.754v6.302h-15.754l-10.878-11.396c30.536-29.148 61.067-59.414 102.074-100.898zM499.397 491.118v-43.118l1.912-7.523c22.847-42.038 45.215-83.636 78.020-144.96 97.896-183.004 114.335-213.544 158.345-293.1l18.257-33.003 10.642 36.183c6.548 22.263 11.791 39.696 23.594 78.646 11.828 39.031 17.087 56.52 23.668 78.893l-27.717-5.007c33.701-44.935 67.499-87.7 116.955-148.568l18.509-22.78 8.755 28.015c9.733 31.145 37.411 123.947 40.98 135.549 7.62 22.848 4.397 38.966-10.219 53.582-26.364 26.364-52.762 53.917-87.465 90.998 7.556-8.074-65.964 70.789-85.53 91.442l-4.391 3.256c-1.966 0.983-3.323 1.87-4.837 3.132-1.501 1.251-2.857 2.554-6.823 6.52l-19.321 19.321-7.040-26.402c-5.179-19.421-9.732-34.643-20.304-68.707-10.696-34.465-15.332-49.963-20.656-69.927l26.362 7.080c-15.306 15.306-30.782 30.926-51.416 51.858-6.039 6.127-12.757 12.948-25.485 25.873-10.342 10.5-17.948 18.212-25.435 25.786-41.203 41.682-71.929 72.142-102.726 101.539l-26.631 25.421zM617.992 561.252c7.558 7.472 15.258 15.065 25.746 25.396 12.921 12.724 19.749 19.448 25.881 25.494 20.981 20.683 36.65 36.206 52.019 51.575l19.321 19.321-26.402 7.040c-19.421 5.179-34.643 9.732-68.707 20.304-34.465 10.696-49.963 15.332-69.927 20.656l-4.059-15.222 11.14-11.14c4.699 4.699 6.349 6.415 8.446 8.931 2.818 3.381 5.039 6.779 7.108 10.917l-14.091 7.045 10.835-11.437c20.546 19.464 99.287 92.871 91.303 85.399 37.312 34.921 65.093 61.536 91.747 88.19 5.864 5.864 9.438 6.579 21.688 2.496 12.152-3.744 104.865-31.395 135.766-41.051l-5.235 27.264c-60.579-49.221-103.057-82.792-147.604-116.202l-25.135-18.851 30.142-8.865c22.263-6.548 39.696-11.791 78.646-23.594 39.031-11.828 56.52-17.087 78.893-23.668l-3.181 28.899c-79.369-43.906-109.866-60.322-292.71-158.133-61.381-32.835-103.031-55.231-145.144-78.119l-3.617-2.702c2.435 2.435 2.205 2.251 7.989 2.251s5.554 0.184 7.989-2.251l-11.14-11.14 11.396-10.878c29.148 30.536 59.414 61.067 100.898 102.074zM483.675 469.799l10.884-10.884c1.173-1.189 1.173-1.189 3.169-2.934 3.042-2.433 6.462-4.043 11.121-4.043s8.080 1.61 11.121 4.043c1.996 1.745 1.996 1.745 3.169 2.934l-11.14 11.14 7.523-13.842c42.038 22.847 83.636 45.215 144.96 78.020 183.004 97.896 213.544 114.335 293.1 158.345l33.003 18.257-36.183 10.642c-22.263 6.548-39.696 11.791-78.646 23.594-39.031 11.828-56.52 17.087-78.893 23.668l5.007-27.717c44.935 33.701 87.7 67.499 148.568 116.955l22.78 18.509-28.015 8.755c-31.145 9.733-123.947 37.411-135.549 40.98-22.848 7.62-38.966 4.397-53.582-10.219-26.364-26.364-53.917-52.762-90.998-87.465 8.074 7.556-70.789-65.964-91.442-85.53l-3.256-4.391c-0.983-1.966-1.87-3.323-3.132-4.837-1.251-1.501-2.554-2.857-6.52-6.823l-19.321-19.321 26.402-7.040c19.421-5.179 34.643-9.732 68.707-20.304 34.465-10.696 49.963-15.332 69.927-20.656l-7.080 26.362c-15.306-15.306-30.926-30.782-51.858-51.416-6.127-6.039-12.948-12.757-25.873-25.485-10.5-10.342-18.212-17.948-25.786-25.435-41.682-41.203-72.142-71.929-101.539-102.726l-10.628-11.134zM387.103 350.502c-7.558-7.472-15.258-15.065-25.746-25.396-12.921-12.724-19.749-19.448-25.881-25.494-20.981-20.683-36.65-36.206-52.019-51.575l-19.321-19.321 26.402-7.040c19.421-5.179 34.643-9.732 68.707-20.304 34.465-10.696 49.963-15.332 69.927-20.656l4.059 15.222-11.14 11.14c-4.699-4.699-6.349-6.415-8.446-8.931-2.818-3.381-5.039-6.779-7.108-10.917l14.091-7.045-10.835 11.437c-20.546-19.464-99.287-92.871-91.303-85.399-37.312-34.921-65.093-61.536-91.747-88.19-5.864-5.864-9.438-6.579-21.688-2.496-12.152 3.744-104.865 31.395-135.766 41.051l5.235-27.264c60.579 49.221 103.057 82.792 147.604 116.202l25.135 18.851-30.142 8.865c-22.263 6.548-39.696 11.791-78.646 23.594-39.031 11.828-56.52 17.087-78.893 23.668l3.181-28.899c79.369 43.906 109.866 60.322 292.71 158.133 61.381 32.835 103.031 55.231 145.144 78.119l3.617 2.702c-4.858-4.858-20.592-4.858-20.592 11.14h15.754l-11.396 10.878c-29.148-30.536-59.414-61.067-100.898-102.074zM515.151 435.387v6.312c0 22.299-22.035 22.299-33.195 11.14l11.14-11.14-7.523 13.842c-42.038-22.847-83.636-45.215-144.96-78.020-183.004-97.896-213.544-114.335-293.1-158.345l-33.003-18.257 36.183-10.642c22.263-6.548 39.696-11.791 78.646-23.594 39.031-11.828 56.52-17.087 78.893-23.668l-5.007 27.717c-44.935-33.701-87.7-67.499-148.568-116.955l-22.78-18.509 28.015-8.755c31.145-9.733 123.947-37.411 135.549-40.98 22.848-7.62 38.966-4.397 53.582 10.219 26.364 26.364 53.917 52.762 90.998 87.465-8.074-7.556 70.789 65.964 91.442 85.53l3.256 4.391c0.983 1.966 1.87 3.323 3.132 4.837 1.251 1.501 2.554 2.857 6.52 6.823l19.321 19.321-26.402 7.040c-19.421 5.179-34.643 9.732-68.707 20.304-34.465 10.696-49.963 15.332-69.927 20.656l7.080-26.362c15.306 15.306 30.926 30.782 51.858 51.416 6.127 6.039 12.948 12.757 25.873 25.485 10.5 10.342 18.212 17.948 25.786 25.435 41.682 41.203 72.142 71.929 101.539 102.726l4.358 4.566z" />
<glyph unicode="&#xe61a;" glyph-name="ing-industrial" d="M706.624-18.206l17.809-17.809v252.184h-154.554v-252.184l17.809 17.809h-566.698l17.809-17.809v947.995l-17.809-17.809h234.375l-17.809 17.809v-389.823l27.589 18.13c122.501 80.501 238.005 157.504 357.008 238.005l-27.787 14.751v-270.886l27.589 18.13c51.080 33.567 90.615 59.972 178.554 119.036 87.842 58.998 127.307 85.357 178.256 118.838l-27.589 14.883v-829.058l17.809 17.809h-262.36zM986.793-53.824v879.88l-27.589-18.13c-51.080-33.567-90.615-59.972-178.554-119.036-87.842-58.998-127.307-85.357-178.256-118.838l27.589-14.883v271.421l-27.787-18.797c-118.871-80.412-234.243-157.327-356.612-237.741l27.589-14.883v374.619h-269.993v-983.612h602.316v252.184l-17.809-17.809h118.937l-17.809 17.809v-252.184h297.978zM794.077 65.749l17.809-17.809v248.686h-332.959v-245.188l17.809 17.809c-61.18 0-104.201 0.444-193.449 1.747-3.098 0.045-3.098 0.045-6.196 0.090-83.618 1.22-126.882 1.661-185.149 1.661l17.809-17.809v741.605l-17.809-17.809h69.963l-17.809 17.809v-432.434l27.823 18.919c36.567 24.865 76.676 53.015 175.17 122.618 98.276 69.448 138.332 97.56 174.643 122.252l-27.823 14.726v-258.384l26.782 15.623c2.813 1.641 2.813 1.641 15.442 9.023 12.277 7.181 25.956 15.195 40.687 23.842 42.091 24.707 84.184 49.538 123.476 72.889 2.581 1.534 2.581 1.534 5.162 3.069 85.091 50.606 143.914 86.477 166.162 101.773l-27.898 14.675v-577.193l17.809 17.809h-87.453zM899.339 30.132v628.856l-27.898-19.18c-21.306-14.648-79.986-50.431-164.19-100.51-2.576-1.532-2.576-1.532-5.152-3.063-39.231-23.315-81.27-48.114-123.31-72.791-14.715-8.637-28.378-16.642-40.64-23.814-12.61-7.371-12.61-7.371-15.406-9.002l26.782-15.383v261.025l-27.823-18.919c-36.567-24.865-76.676-53.015-175.17-122.618-98.276-69.448-138.332-97.56-174.643-122.252l27.823-14.726v416.596h-105.58v-777.222h17.809c58.050 0 101.173-0.44 184.63-1.657 3.098-0.045 3.098-0.045 6.196-0.090 89.411-1.305 132.569-1.751 193.969-1.751h17.809v245.188l-17.809-17.809h297.342l-17.809 17.809v-248.686h123.071z" />
<glyph unicode="&#xe61b;" glyph-name="ing-mecanica" horiz-adv-x="1062" d="M449.943 79.973c-17.411 38.997-56.644 59.407-121.816 60.935l-8.067 0.189-4.666-6.584c-8.033-11.336-56.694-74.176-68.52-90.068l22.94 1.628c-23.237 23.421-30.899 31.35-79.103 81.553-1.886 1.964-1.886 1.964-3.773 3.928-22.155 23.059-37.806 39.168-54.577 56.072l-1.8-22.92-8.969-2.935c15.255 7.543 21.803 12.451 28.824 17.804 5.441 4.148 56.333 43.853 66.695 51.314l6.669 4.802-0.379 8.209c-5.602 121.399-61.591 149.258-178.752 131.764l17.411-15.004v186.729l-16.859-15.076c59.947-6.713 89.743-6.566 118.845 5.597 39.736 16.606 60.833 54.624 62.355 117.536l0.188 7.777-6.206 4.691c-19.41 14.673-38.188 31.11-82.622 71.417l0.227-22.263c40.36 38.137 68.964 66.487 137.803 135.871l-22.147 0.651c5.324-6.037 9.842-11.978 18.586-24.107 25.997-36.070 39.352-50.007 62.274-58.408 20.515-6.899 34.322-3.602 78.949 12.674 15.585 5.684 24.727 8.663 34.292 10.888l11.734 2.729v144.564l-15.17-15.17h179.286l-15.132 14.098c0.717-10.111 0.906-18.616 1.038-38.117 0.015-2.21 0.015-2.21 0.031-4.428 0.329-43.795 2.595-65.932 11.996-88.672 6.779-15.945 20.866-23.779 51.22-34.37 0.928-0.324 18.523-6.331 23.664-8.179 10.081-3.624 17.981-6.873 24.939-10.379l11.031-5.559 7.679 9.675c4.136 5.211 9.037 11.362 18.382 23.089 7.629 9.583 13.383 16.849 19.023 24.038 14.639 18.66 26.721 34.564 37.718 49.804l-23.39-1.477c6.334-6.783 13.281-14.232 26.099-27.98 10.3-11.043 17.799-19.066 25.188-26.945 3.579-3.814 3.579-3.814 7.162-7.625 29.182-31.024 54.278-57.103 82.31-85.358l10.769 10.685-9.148 12.102c-6.025-4.554-39.317-24.383-47.122-29.628-43.972-33.21-52.406-68.916-25.865-119.075 23.344-43.138 41.202-56.471 83.308-53.206 11.592 1.289 22.478 1.528 37.223 1.091 3.439-0.102 6.226-0.205 12.581-0.455 12.822-0.504 18.964-0.681 26.714-0.681l-15.17 15.17v-183.718l15.17 15.17c-8.924 0-16.126 0.165-32.406 0.662-33.485 1.023-48.506 1.023-67.586-0.725-24.592-4.868-48.228-21.544-52.341-42.272-1.241-3.938-3.898-8.854-10.794-19.873-1.41-2.253-1.41-2.253-2.848-4.573-20.072-32.595-20.853-56.208 10.139-80.752 35.282-31.145 50.743-44.717 68.227-59.822l-0.852 22.164c-35.11-35.388-35.11-35.388-68.726-69.271s-33.616-33.882-68.726-69.271l22.085-0.581c-5.085 5.695-10.364 11.715-15.899 18.124-13.928 16.125-54.784 64.999-55.575 65.929l-4.691 5.516-7.239-0.178c-62.38-1.534-100.201-22.748-116.721-62.416-12.069-28.98-12.218-58.858-5.55-117.111l15.072 16.896h-185.262l15.079-16.833c6.686 60.647 6.397 89.742-6.456 118.529zM424.385-52.064h219.203l-1.934 16.896c-6.066 52.986-5.933 79.55 3.415 101.995 11.455 27.506 38.165 42.488 89.458 43.749l-11.929 5.338c0.643-0.757 41.604-49.756 55.726-66.106 5.639-6.529 11.027-12.673 16.229-18.499l10.734-12.021 11.351 11.441c35.11 35.388 35.11 35.388 68.726 69.271s33.616 33.882 68.726 69.271l11.448 11.538-12.299 10.626c-17.377 15.012-32.794 28.546-68.61 60.133-16.968 13.464-16.735 20.498-3.757 41.572 1.337 2.159 1.337 2.159 2.732 4.387 8.388 13.402 11.854 19.816 14.495 28.688 1.578 7.613 15.022 17.099 27.303 19.574 15.828 1.362 30.024 1.362 62.277 0.377 16.589-0.507 23.996-0.676 33.332-0.676h15.17v214.058h-15.17c-7.228 0-13.088 0.169-25.523 0.658-6.399 0.252-9.303 0.359-12.873 0.465-16.051 0.476-28.255 0.208-40.983-1.217-27.625-2.133-35.545 3.781-53.696 37.321-19.43 36.722-14.825 56.218 16.723 80.066 5.851 3.903 40.174 24.346 47.81 30.118l13.845 10.466-12.224 12.321c-27.827 28.047-52.74 53.936-81.748 84.776-3.568 3.795-3.568 3.795-7.132 7.594-7.367 7.854-14.848 15.859-25.131 26.883-12.814 13.742-19.769 21.2-26.111 27.992l-12.593 13.486-10.797-14.963c-10.727-14.867-22.577-30.465-36.985-48.831-5.587-7.122-11.301-14.337-18.889-23.868-9.33-11.708-14.253-17.887-18.409-23.123l18.71 4.116c-8.231 4.148-17.188 7.831-28.329 11.836-5.416 1.947-23.21 8.022-23.933 8.275-21.592 7.533-31.316 12.941-33.235 17.454-7.337 17.75-9.337 37.285-9.636 77.169-0.016 2.199-0.016 2.199-0.031 4.405-0.136 20.158-0.335 29.077-1.113 40.056l-0.999 14.098h-208.59v-147.688l11.734 14.776c-11.092-2.58-21.14-5.855-37.814-11.936-36.432-13.287-48.058-16.063-58.502-12.554-14.727 5.404-25.328 16.465-46.249 45.494-10.777 14.951-15.718 21.449-21.907 28.466l-10.726 12.162-11.421-11.512c-68.614-69.157-97.055-97.346-137.103-135.188l-11.91-11.254 12.136-11.009c45.209-41.010 64.28-57.703 84.711-73.148l-6.018 12.469c-1.255-51.863-16.185-78.767-43.723-90.276-22.553-9.425-49.135-9.557-103.769-3.439l-16.859 1.888v-221.297l17.411 2.6c101.655 15.179 139.368-3.586 143.963-103.154l6.291 13.011c-10.923-7.864-62.348-47.985-67.364-51.809-6.878-5.244-13.276-10.039-19.397-14.526l8.969 2.935-23.176-13.35 12.407-12.505c16.635-16.767 32.185-32.772 54.237-55.724 1.883-1.96 1.883-1.96 3.766-3.921 48.338-50.342 56.047-58.321 79.45-81.908l12.416-12.514 10.524 14.143c11.482 15.43 60.453 78.672 68.933 90.638l-12.733-6.395c54.467-1.277 82.783-16.007 94.822-42.971 9.815-21.984 10.071-47.785 4.003-102.835l-1.856-16.833zM533.951 222.006c127.949 0 230.314 100.199 230.314 225.994 3.189 125.161-101.818 232.017-227.326 232.017-124.158 6.438-227.326-96.537-227.326-225.994 0-128.845 99.409-232.017 224.338-232.017zM536.156 649.697c109.286-0.020 200.532-92.872 197.773-201.311-0.005-109.277-88.642-196.039-199.978-196.039-107.914 0-193.997 89.342-193.997 201.677 0 112.42 88.962 201.216 196.202 195.673zM536.43 279.238c96.059-0.009 174.049 76.558 174.049 171.774 0 96.188-75.963 174.794-170.552 174.794-96.407 3.248-173.54-74.496-173.54-171.782 0-98.127 71.811-171.485 170.042-174.785zM539.418 595.473c78.105-0.009 140.72-64.803 140.72-144.462 0-78.332-64.283-141.441-143.199-141.441-81.452 2.745-140.211 62.769-140.211 144.453 0 80.408 63.211 144.12 142.69 141.45z" />
<glyph unicode="&#xe61c;" glyph-name="ing-quimica" horiz-adv-x="948" d="M852.097 451.397c-0.597 1.135 9.274-17.612 11.923-22.675 9.37-17.91 15.878-30.846 21.777-43.525 7.089-15.237 12.791-29.125 17.408-42.657 15.328-44.924-3.592-86-51.314-113.425-38.417-20.003-81.331-27.864-139.251-27.864h-64.331l-4.227-8.259c-5.389-10.53-9.098-19.259-16.984-39.071-11.139-27.983-16.537-39.721-24.862-51.921-20.755-33.762-44.131-63.23-67.763-83.752-43.459-37.15-95.706-36.431-135.437 2.385-18.022 17.607-32.847 35.885-57.849 69.794 0.414-0.562-10.899 14.812-14.11 19.148-9.57 12.919-17.069 22.746-24.694 32.226l-4.554 5.663h-7.267c-26.022 0-51.173-1.504-111.244-6.019-15.598 0.043-32.366 2.773-49.219 8.261-66.849 19.060-97.554 71.007-78.859 133.629 7.574 22.163 17.481 44.059 33.377 75.119 3.223 6.298 6.499 12.616 13.132 25.383 11.911 22.975 19.046 37.281 26.168 52.937l3.908 8.591-5.979 7.302c-4.003 4.889-23.772 26.946-28.768 32.87-7.733 9.17-13.975 17.403-19.127 25.456-1.984 3.609-1.571 2.883-8.95 15.809-21.967 38.476-30.821 58.189-34.721 82.959-7.65 44.85 13.507 81.522 59.608 106.857 47.303 24.316 100 29.339 177.859 22.095 5.895-0.065 8.138-0.123 10.635-0.367 2.693-0.263 4.629-0.711 5.521-1.147l14.202-6.937 6.349 14.474c6.095 13.895 8.8 20.017 12.169 27.479 5.611 12.43 10.413 22.561 14.97 31.466 9.712 18.977 19.089 32.959 41.561 63.696 60.539 67.092 132.23 66.37 190.16-3.701 13.132-15.399 24.422-33.564 37.949-59.995l2.903-3.94c13.165-12.861 21.42-28.993 29.888-53.809l3.505-10.272h117.902c11.434 0 20.995-1.401 42.969-5.695 71.663-18.882 104.684-73.87 83.254-141.912-5.887-24.747-14.737-46.218-30.019-76.256-2.371-4.661-10.515-20.405-11.835-22.985l-3.537-6.911 3.537-6.911c3.643-7.119 7.366-14.269 12.268-23.595zM866.838 474.992c1.274 2.489 9.44 18.277 11.868 23.050 16.285 32.010 25.946 55.449 32.211 81.969 26.498 83.999-16.819 156.133-105.72 179.516-24.854 4.888-35.684 6.475-49.737 6.475h-107.049l14.358-10.272c-9.884 28.969-19.979 48.695-37.4 65.715l2.903-3.94c-14.51 28.351-26.938 48.349-41.724 65.684-69.685 84.293-163.107 85.234-236.912 3.296-24.38-33.213-34.374-48.115-45.052-68.98-4.816-9.409-9.817-19.961-15.615-32.805-3.428-7.594-6.161-13.78-12.3-27.774l13.892-6.094 6.659 13.631c-4.689 2.29-9.906 3.498-15.888 4.082-3.784 0.37-6.73 0.445-12.18 0.445-81.696 7.667-139.57 2.151-193.508-25.584-57.108-31.377-85.264-80.18-75.305-138.555 4.62-29.345 14.583-51.53 38.313-93.092 7.302-12.789 6.895-12.075 9.274-16.336 6.424-10.092 13.433-19.336 21.957-29.445 5.447-6.46 25.017-28.295 28.488-32.533l-2.071 15.893c-6.853-15.065-13.798-28.989-25.487-51.536-6.621-12.743-9.94-19.144-13.205-25.525-16.505-32.25-26.94-55.313-35.262-79.703-23.84-79.817 16.739-148.471 98.898-171.882 19.309-6.299 39.244-9.545 59.211-9.545 60.349 4.493 85.153 5.976 110.108 5.976l-11.822 5.663c7.33-9.114 14.606-18.648 23.956-31.271 3.178-4.29 14.459-19.621 14.070-19.094 25.921-35.155 41.546-54.42 61.067-73.491 51.151-49.973 121.15-50.936 176.445-3.668 26.35 22.883 51.567 54.671 73.416 90.247 9.63 14.081 15.61 27.084 27.593 57.19 7.529 18.914 10.998 27.078 15.804 36.469l-13.505-8.259h55.054c62.382 0 109.874 8.7 153.82 31.598 60.146 34.55 85.794 90.233 65.46 149.829-4.993 14.634-11.097 29.501-18.615 45.658-6.137 13.19-12.832 26.499-22.402 44.79-2.671 5.105-12.564 23.895-11.95 22.727-4.855 9.236-8.531 16.297-12.116 23.302v-13.823zM655.519 508.313c-0.922 13.806-0.965 14.335-4.227 52.571 0.055 12.979-11.859 30.438-23.75 36.247-33.485 17.855-70.514 35.943-104.492 51.032-13.688 4.542-29.212 4.542-41.44 0.56-52.421-28.166-107.805-59.296-168.023-93.903-13.795-8.957-22.904-25.485-22.904-40.046v-125.5c0-15.769 13.535-36.339 28.824-41.318 76.243-35.165 110.329-51.070 150.966-70.921 35.070-18.699 65.863-14.071 106.087 9.508 64.536 31.477 93.42 75.013 83.803 140.783l-2.48 6.356c-0.75 1.098-1.184 3.007-1.184 6.39 0 1.696 0.090 3.316 0.339 6.603 0.332 4.373 0.426 5.952 0.426 8.337 0 16.961-0.656 33.986-1.945 53.302zM626.785 448.967c-0.305-4.025-0.426-6.204-0.426-8.897 0-8.943 1.732-16.559 6.463-23.491l12.531 8.551-15.011-2.195c7.507-51.336-13.498-82.997-68.111-109.674-33.034-19.314-53.286-22.358-77.963-9.207-41.4 20.234-75.622 36.202-153.725 72.11-3.868 1.367-9.518 9.954-9.518 13.109v125.5c0 4.221 3.859 11.222 8.402 14.181 59.301 34.052 114.48 65.068 164.119 92.010 3.584 0.902 12.528 0.902 18.651-1.092 31.85-14.232 68.227-32.002 101.554-49.761 2.349-1.158 7.257-8.35 7.257-10.517 3.293-39.25 3.336-39.774 4.239-53.302 1.247-18.687 1.878-35.054 1.878-51.281 0-1.319-0.071-2.509-0.339-6.043zM254.701 542.225c6.891 6.703 11.27 16.686 11.27 26.333 2.374 16.365 4.773 30.799 10.474 63.102 5.769 32.688 8.212 47.388 10.796 66.323l1.96 14.362-14.258 2.612c-54.697 10.020-105.287 8.475-153.973-6.389-61.122-21.065-83.353-66.477-58.352-122.305 9.908-19.405 20.189-36.44 36.679-61.826 2.408-3.706 11.003-16.867 12.707-19.487 10.612-16.311 17.805-27.764 24.769-39.67l8.94-15.285 13.732 11.18c32.287 26.286 56.891 47.318 95.254 81.051zM162.963 480.598c-7.257 12.407-14.675 24.217-25.527 40.898-1.726 2.654-10.314 15.802-12.696 19.469-15.967 24.581-25.788 40.853-34.773 58.41-17.097 38.229-3.967 65.052 40.377 80.342 43.234 13.189 88.964 14.586 139.131 5.396l-12.298 16.973c-2.513-18.416-4.913-32.85-10.613-65.153-5.769-32.688-8.212-47.388-10.796-66.323-0.139-3.361-1.112-5.579-1.687-6.141-37.516-32.959-61.849-53.76-93.791-79.766l22.673-4.105zM70.847 270.125c-8.179-35.956 3.123-68.078 35.083-85.424 48.809-28.055 101.786-29.473 175.617-13.444l14.471 3.142-2.791 14.543c-6.885 35.872-9.945 51.756-13.772 71.385-5.055 25.928-9.521 48.378-13.791 69.239 0.308 6.917-6.591 19.050-13.436 25.737-23.881 20.459-50.169 38.294-85.51 59.010l-10.881 6.378-8.258-9.534c-40.421-46.67-65.053-89.695-76.73-141.032zM151.372 388.137c33.926-19.887 58.83-36.783 80.395-55.218 0.822-0.85 3.863-6.197 3.863-6.397 4.558-23.801 9.006-46.162 14.044-72.003 3.819-19.59 6.876-35.455 13.755-71.297l11.68 17.684c-67.161-14.581-113.271-13.347-154.384 10.28-19.282 10.47-25.662 28.605-20.293 52.209 10.433 45.869 32.661 84.693 70.080 127.898l-19.139-3.156zM414.591 708.684c27.891-8.515 49.765-14.821 70.952-20.341 4.308-2.44 9.391-2.44 18.497-0.957 2.249 0.366 3.073 0.467 3.679 0.467l4.698 0.746c6.352 2.069 13.078 4.359 21.477 7.293 4.328 1.512 19.506 6.865 22.048 7.756 18.782 6.587 31.761 10.894 44.742 14.698l14.665 4.298-4.405 14.633c-18.308 60.813-42.565 103.767-81.324 135.808-41.685 33.323-87.125 33.323-119.17-4.94-19.319-16.938-35.612-37.769-57.499-71.411-2.674-4.11-20.609-32.168-26.124-40.55l-11.106-16.879 19.307-5.956c9.043-2.79 64.659-20.114 79.565-24.665zM352.171 739.506c5.651 8.588 23.644 36.737 26.211 40.682 20.529 31.556 35.374 50.535 53.771 66.874 22.063 26.089 48.793 26.089 78.327 2.481 33.25-27.49 54.676-65.429 71.409-121.012l10.26 18.931c-13.599-3.986-27.010-8.435-46.25-15.183-2.583-0.906-17.738-6.25-22.014-7.744-8.213-2.869-14.749-5.095-20.865-7.087l4.698-14.425v15.17c-2.792 0-4.687-0.231-8.555-0.861-3.129-0.509-3.483-0.509-3.138-0.678l-2.979 1.086c-20.576 5.361-42.073 11.559-69.596 19.962-14.806 4.52-70.362 21.826-79.48 24.639l8.201-22.835zM582.011 219.74c-43.988 11.039-51.132 12.266-68.717 7.971-46.062-12.495-63.841-20.109-170.992-69.696l-16.256-7.523 10.096-14.796c4.935-7.232 8.766-13.253 17.318-27.014 17.801-28.645 26.282-41.073 38.967-55.236 49.398-55.155 109.429-54.161 154.764 3.759 15.838 20.115 28.24 40.677 45.913 74.158 1.971 3.734 12.345 23.569 15.368 29.274 6.037 11.396 11.163 20.759 16.384 29.826l11.093 19.267-21.985 3.304c-9.774 1.469-19.112 3.482-31.952 6.704zM598.562 205.603c-5.422-9.416-10.71-19.075-16.901-30.761-3.069-5.794-13.458-25.656-15.389-29.314-16.882-31.983-28.484-51.218-42.946-69.586-33.571-42.889-71.341-43.515-108.298-2.252-11.105 12.399-18.936 23.875-35.798 51.008-8.78 14.129-12.765 20.392-18.026 28.1l-6.16-22.318c105.137 48.655 122.537 56.106 165.822 67.853 10.031 2.445 16.441 1.343 53.759-8.022 13.707-3.44 23.903-5.638 34.828-7.28l-10.892 22.571zM834.827 240.858c44.546 18.131 62.653 53.511 48.268 99.186-7.635 22.392-17.131 42.358-32.014 69.201-3.448 6.219-15.822 28.081-18.147 32.244l-9.328 16.707-14.139-12.893c-15.182-13.844-30.567-27.22-49.887-43.529-4.869-4.11-38.27-32.075-47.784-40.165-11.557-9.827-21.422-18.42-30.727-26.811-3.034-2.947-5.214-6.009-7.523-9.956-1.47-2.513-2.568-4.592-4.997-9.339l-1.506-4.716c-4.61-31.524-6.666-46.594-9.238-69.207l-1.723-15.15 15.159-1.646c67.762-7.356 117.057-3.814 163.585 16.073zM687.953 238.153c2.526 22.209 4.547 37.020 9.113 68.246l-15.011 2.195 13.505-6.911c2.159 4.218 3.099 5.999 4.178 7.843 1.056 1.805 1.847 2.916 2.094 3.158 8.621 7.758 18.271 16.164 29.62 25.814 9.407 7.999 42.749 35.914 47.7 40.094 19.591 16.537 35.251 30.153 50.759 44.294l-23.467 3.815c2.391-4.283 14.735-26.091 18.103-32.166 14.087-25.408 22.885-43.906 29.722-63.945 9.389-29.825-0.575-49.294-31.123-61.729-41.084-17.558-85.577-20.754-148.629-13.91l13.436-16.796zM840.246 537.492c3.309 7.116 4.955 10.663 6.617 14.292 8.334 18.201 13.656 31.326 17.913 45.19 14.259 55.655-7.695 93.89-61.8 111.509-42.298 11.821-85.416 11.069-136.265 0.424l-15.107-3.163 3.423-15.050c2.403-10.564 3.298-15.171 7.525-37.883 3.144-16.892 5.143-26.583 7.864-37.216l1.128-3.024c0.547-1.071 2.689-5.651 3.104-6.503 4.359-8.943 8.552-14.614 16.041-18.273l6.659 13.631-10.074-11.343c15.931-14.149 33.762-28.195 55.817-44.25 8.934-6.503 18.433-13.25 30.29-21.548 6.349-4.443 28.489-19.847 31.51-21.955l15.54-10.845 7.18 17.537c3.377 8.247 6.786 15.867 12.635 28.467zM822.254 527.213c-3.052 2.13-25.168 17.518-31.477 21.933-11.716 8.198-21.071 14.843-29.829 21.219-21.325 15.523-38.422 28.991-53.526 42.405l-3.415 2.288c0.456-0.223-0.523 1.102-2.084 4.304-0.203 0.416-2.525 5.382-3.304 6.905l1.213-3.232c-2.53 9.887-4.421 19.056-7.449 35.327-4.312 23.168-5.239 27.943-7.768 39.061l-11.684-18.213c46.468 9.728 84.868 10.398 121.272 0.237 38.501-12.553 51.413-35.040 41.377-74.259-3.592-11.64-8.473-23.679-16.301-40.772-1.625-3.549-3.234-7.017-6.552-14.15-6.031-12.993-9.595-20.958-13.193-29.745l22.721 6.693zM300.502 271.198c-2.265 10.276-4.281 19.158-6.353 27.932l-6.909 29.249 27.635-11.812c54.557-23.319 98.944-43.935 141.741-66.234l30.135-15.702-31.809-11.953c-16.7-6.275-29.642-10.907-58.415-21.027-28.574-10.050-41.375-14.631-57.81-20.807l-15.838-5.951-4.194 16.392c-2.848 11.129-5.532 22.448-8.489 35.635-1.178 5.253-2.372 10.676-3.872 17.563-2.871 13.228-4.393 20.232-5.822 26.715zM302.95 288.668c53.898-23.037 97.611-43.34 139.645-65.242l1.674 27.655c-16.434-6.175-29.235-10.757-57.81-20.807-28.773-10.12-41.715-14.752-58.415-21.027l20.033-10.44c-2.765 10.805-5.382 21.839-8.277 34.751-1.162 5.183-2.344 10.55-3.831 17.381-2.864 13.198-4.398 20.256-5.839 26.791-2.296 10.413-4.343 19.438-6.454 28.375l-20.726-17.437zM736.082 523.775c5.738-4.566 41.317-32.381 53.318-41.974l13.401-10.712-12.272-11.989c-8.345-8.153-16.944-16.295-27.914-26.49-3.796-3.528-22.865-21.15-28.31-26.22-11.107-10.341-20.32-19.083-29.415-27.969l-25.772-25.178v218.701l25.117-21.812c6.439-5.592 12.95-11.061 19.91-16.745 3.775-3.082 7.696-6.238 11.936-9.612zM769.327 480.802c-8.137-7.95-16.565-15.93-27.366-25.968-3.751-3.486-22.833-21.121-28.33-26.238-11.272-10.494-20.653-19.397-29.943-28.473l25.772-10.851v149.405l-25.117-11.454c6.681-5.802 13.425-11.468 20.615-17.338 3.879-3.167 7.898-6.402 12.233-9.852 5.884-4.682 41.428-32.469 53.266-41.932l-1.129 22.701zM363.686 701.968c13.151-3.078 59.829-15.055 68.11-17.077l37.51-9.161-33.714-18.822c-17.818-9.947-31.314-17.535-61.117-34.333-29.838-16.818-43.36-24.42-61.225-34.393l-31.799-17.752 9.792 35.077c8.835 31.648 14.909 58.024 21.107 91.328l2.753 14.792 14.815-2.632c10.792-1.917 21.716-4.206 33.769-7.027zM420.801 683.4c-17.865-9.974-31.387-17.576-61.225-34.393-29.803-16.798-43.299-24.386-61.117-34.333l22.007-17.325c9.080 32.525 15.354 59.77 21.712 93.935l-17.567-12.161c10.212-1.814 20.61-3.993 32.16-6.696 12.77-2.989 59.25-14.915 67.826-17.009l-3.795 27.983zM259.854 487.88v-108.664l-23.45 15.273c-8.12 5.289-13.732 9.466-25.531 18.688-11.14 8.707-16.233 12.498-23.406 17.169l-15.864 10.333 13.542 13.23c4.76 4.65 9.623 9.139 15.909 14.746 1.67 1.489 12.734 11.27 16.053 14.247 6.285 5.639 11.622 10.598 16.975 15.828l25.772 25.178v-36.030zM252.963 419.913c-7.173 4.672-12.266 8.463-23.406 17.169-11.799 9.222-17.411 13.399-25.531 18.688l2.322-23.563c4.382 4.281 8.931 8.48 14.903 13.807 1.587 1.416 12.697 11.236 16.118 14.306 6.583 5.906 12.224 11.148 17.915 16.709l-25.772 10.851v-80.679l23.45 12.712zM589.281 641.825c-12.698 6.767-18.758 10.042-27.787 15.083l-30.311 16.921 33.008 10.749c17.802 5.797 30.505 9.063 47.666 12.416l14.756 2.883 3.015-14.73c0.971-4.744 1.754-8.11 3.547-15.467 2.83-11.612 4.118-17.465 5.721-26.858l5.331-31.25-27.68 15.453c-8.812 4.92-14.731 8.119-27.266 14.798zM573.586 655.729c16.607 5.408 28.117 8.367 44.090 11.488l-17.771 11.846c1.068-5.216 1.916-8.862 3.793-16.566 2.675-10.978 3.834-16.241 5.29-24.776l22.349 15.797c-9.029 5.041-15.089 8.316-27.787 15.083-12.535 6.68-18.454 9.879-27.266 14.798l-2.697-27.671zM470.193 371.551c-45.931 0.022-84.939 38.132-84.939 83.459 0 44.353 38.13 80.829 86.584 83.459 45.931-0.022 84.939-38.132 84.939-83.459 0-44.353-38.13-80.829-86.584-83.459zM471.016 568.788c-64.753-3.492-116.102-52.614-116.102-113.778 0-62.244 52.748-113.778 116.102-113.778 64.753 3.492 116.102 52.614 116.102 113.778 0 62.244-52.748 113.778-116.102 113.778zM474.074 517.991c-36.199 0-64.107-24.894-64.107-59.992 0-31.739 24.238-58.971 56.151-62.868 34.866-3.786 64.619 21.648 68.882 54.967 0.123 36.77-24.268 64.003-59.289 67.805l-1.637 0.089zM472.437 487.738c19.61-2.129 32.345-16.348 32.345-35.716-2.107-15.502-17.512-28.67-35.188-26.752-16.524 2.019-29.286 16.358-29.286 32.728 0 17.519 13.601 29.651 33.766 29.651l-1.637 0.089z" />
<glyph unicode="&#xe61d;" glyph-name="menu-admision" horiz-adv-x="906" d="M530.171 682.667c0 138.189-112.617 250.165-251.478 250.165s-251.478-111.977-251.478-250.165c0-138.189 112.617-250.165 251.478-250.165s251.478 111.977 251.478 250.165zM68.058 682.667c0 115.579 94.278 209.322 210.635 209.322s210.635-93.743 210.635-209.322c0-115.579-94.278-209.322-210.635-209.322s-210.635 93.743-210.635 209.322zM323.871 723.692c0 49.823-40.573 90.165-90.564 90.165s-90.564-40.342-90.564-90.165c0-49.823 40.573-90.165 90.564-90.165s90.564 40.342 90.564 90.165zM183.586 723.692c0 27.214 22.235 49.322 49.72 49.322s49.72-22.108 49.72-49.322c0-27.214-22.235-49.322-49.72-49.322s-49.72 22.108-49.72 49.322zM874.943 134.852l28.798 28.963-408.475 406.154-28.798-28.963 408.475-406.154zM788.222 69.286l0.075 28.888-115.528-114.872 28.627 0.168-177.418 172.308 0.171-29.131 49.512 49.231-28.798 28.963-64.249-63.884 206.722-200.768 144.248 143.428-410.511 412.43-28.948-28.813 396.097-397.949zM586.123 69.456l28.798-28.963 41.26 41.026-28.798 28.963-41.26-41.026z" />
<glyph unicode="&#xe61e;" glyph-name="menu-carreras" d="M889.425 312.417l15.018 15.018-619.86 619.86-256.562-256.562 722.438-722.438 241.545 241.545-30.036 30.036-226.527-226.527h30.036l-692.402 692.402v-30.036l226.527 226.527h-30.036l589.824-589.824v30.036l-158.141-158.141 30.036-30.036 158.141 158.141zM402.179 803.937l-30.036 30.036-158.141-158.141 30.036-30.036 158.141 158.141zM645.595 555.836l-29.622 30.444-158.141-153.867 29.622-30.444 158.141 153.867zM940.714 607.329l15.018 15.018-258.641 258.641v-30.036l17.096 17.096c60.091 60.091 153.496 60.091 213.587 0 29.067-29.067 45.068-70.070 45.068-113.205h42.477c0 54.101-20.243 105.974-57.51 143.241-76.68 76.68-196.979 76.68-273.659 0l-32.114-32.114 258.641-258.641v30.036l-329.105-329.105 30.036-30.036 329.105 329.105zM115.938 334.141l-6.461-6.259v-278.131h273.659l125.895 125.895-30.036 30.036-119.674-119.674 15.018 6.221h-243.623l21.239-21.239v247.897l-6.461-15.254 136.771 132.497-29.555 30.509-136.771-132.497zM624.431 808.329l-14.892 14.892-271.462-266.938 29.782-30.287 256.445 252.171-29.909 0.126 243.623-243.623 30.036 30.036-243.623 243.623zM144.321 104.762l51.289 8.548-11.526-35.967-42.741 42.741 35.967 11.526-8.548-51.289-24.441 24.441zM243.302 78.196l-101.106 101.106-20.221-121.327 121.327 20.221z" />
<glyph unicode="&#xe61f;" glyph-name="menu-convenios" horiz-adv-x="785" d="M223.835 4.267v-42.465l191.073 189.403h-24.92l191.073-189.403v386.292h-35.398v-343.828l30.159 12.57-173.374 171.859-173.374-171.859 30.159-12.57v343.828h-35.398v-343.828zM669.128 664.496l6.193-23.815 62.281 110.244-120.981 22.208 14.503-17.408v126.201l-122.646-34.735 20.973-9.788-53.1 118.43-93.203-87.989 23.998 0.278-97.335 87.713-48.887-118.945 21.193 10.301-122.646 34.735v-126.201l14.503 17.408-120.981-22.208 62.281-110.244 5.239 23.19-107.932-75.783 116.037-70.783-6.193 23.815-62.281-110.244 120.981-22.208-14.503 17.408v-126.201l122.646 34.735-21.193 10.301 48.633-118.329 97.251 83.255h-23.020l97.251-83.255 48.633 118.329-21.193-10.301 122.646-34.735v126.201l-14.503-17.408 120.981 22.208-62.281 110.244-5.239-23.19 107.932 75.783-116.037 70.783zM742.713 607.158l-98.953-69.479 57.954-102.585 12.214 26.113-111.052-20.385v-117.539l22.522 17.029-115.315 32.659-45.337-110.308 27.88 6.717-90.179 77.201-90.179-77.201 27.88-6.717-45.337 110.308-115.315-32.659 22.522-17.029v117.539l-111.052 20.385 12.214-26.113 58.481 103.517-107.584 65.627 0.954-29.594 98.953 69.479-57.954 102.585-12.214-26.113 111.052 20.385v117.539l-22.522-17.029 115.315-32.659 45.337 110.308-28.218-6.42 90.796-81.821 86.964 82.099-28.3 5.629 49.168-109.66 114.84 32.525-22.522 17.029v-117.539l111.052-20.385-12.214 26.113-58.481-103.517 107.584-65.627-0.954 29.594zM227.038 589.765c3.266 92.617 78.267 165.984 171.834 165.984 93.060 0 168.561-72.872 171.834-163.714-3.266-92.617-78.267-165.984-171.834-165.984-93.060 0-168.561 72.872-171.834 163.714zM606.082 592.058c-3.96 111.132-95.091 199.089-207.209 199.089-112.738 0-203.284-88.574-207.209-201.403 3.96-111.132 95.091-199.089 207.209-199.089 112.738 0 203.284 88.574 207.209 201.403z" />
<glyph unicode="&#xe620;" glyph-name="menu-edp" horiz-adv-x="901" d="M431.221 618.368l14.989-0.025-445.944 169.046v-673.663l426.519-163.366 7.597-1.405h9.287l13.067 6.493 424.664 162.553v669.278l-450.178-168.909zM838.921 756.625v-624.017l13.642 19.833-412.877-158.141-10.456-5.088 9.451-19.020v21.239h-4.301v-21.239l7.597 19.833-412.877 158.141 13.642-19.833v628.291l-28.767-19.86 424.667-160.98 428.978 160.955-28.699 19.885zM341.199 292.127l14.332 39.986-262.349 94.030-14.332-39.986 262.349-94.030zM341.199 155.356l14.332 39.986-262.349 94.030-14.332-39.986 262.349-94.030zM513.621 490.39l13.551-40.258 266.65 89.756-13.551 40.258-266.65-89.756zM513.334 332.149l14.126-40.059 266.65 94.030-14.126 40.059-266.65-94.030zM513.334 195.379l14.126-40.059 266.65 94.030-14.126 40.059-266.65-94.030zM90.582 521.55v-36.204l100.415 56.132-26.245 4.438 101.632-114.468v239.695h-42.477v-183.786l37.12 14.101-75.85 85.43-83.719-46.8 31.602-18.539v205.156h-42.477v-205.156zM408.841-12.711h42.477v611.194h-42.477v-611.194zM437.234 939.037l-7.342 2.627-415.873-156.615 14.97-39.752 408.576 153.867-14.639-0.121 430.080-153.867 14.309 39.995-430.080 153.867z" />
<glyph unicode="&#xe621;" glyph-name="menu-investigacion" horiz-adv-x="600" d="M287.162 808.566l-11.493-23.391 109.714 36.618-23.086 11.344 109.714-314.916 34.58 12.047-115.659 331.981-144.452-48.212 115.817-332.434 34.58 12.047-109.714 314.916zM130.499 454.67c0-105.455 83.994-186.752 192.339-186.752l5.875 0.968 226.995 76.898-11.749 34.682-226.995-76.898 5.875 0.968c-88.384 0-155.72 65.175-155.72 150.134 0 81.8 71.655 150.134 159.504 150.134v36.618c-107.694 0-196.122-84.331-196.122-186.752zM28.351 399.743c0-169.966 134.486-322.24 298.27-322.24h226.995l-18.309 18.309v-109.854l18.309 18.309h-264.828v-36.618h283.137v146.473h-245.304c-142.477 0-261.652 134.937-261.652 285.621 0 139.544 119.985 275.587 255.444 285.672l-2.719 36.517c-154.993-11.54-289.344-163.871-289.344-322.189zM331.897 818.888l34.847 11.251-37.833 117.178-34.847-11.251 37.833-117.178zM279.101 800.076l34.507 12.255-41.616 117.178-34.507-12.255 41.616-117.178z" />
<glyph unicode="&#xe622;" glyph-name="menu-somos-utec" horiz-adv-x="872" d="M848.457 259.488l-19.665 19.665v-134.106l19.665 19.665h-321.628v-169.549h39.331v149.883l-19.665-19.665h321.628v173.437h-238.191v-39.331h218.526zM280.291-0.947l19.495-17.086-123.169 930.854-19.495-22.245h107.276l-16.785 9.418 476.783-780.971 33.569 20.494-482.533 790.389h-140.75l128.373-970.185h569.508v39.331h-552.274zM645.824 559.255l-19.665 19.665v-201.159l19.665 19.665h-47.678v-39.331h67.344v240.49h-170.647v-39.331h150.981zM514.709 626.308h19.665v236.545h-206.405v-39.331h186.74l-19.665 19.665v-197.215l19.665 19.665h-87.41v-39.331h87.41zM73.296 909.006l-38.956-5.418 131.115-942.687 38.956 5.418-131.115 942.687z" />
<glyph unicode="&#xe623;" glyph-name="search" d="M384 950.697c212.064 0 384-171.936 384-384 0-64.832-16.224-125.856-44.64-179.456l267.008-266.944-0.224-0.192c20.864-20.512 33.856-48.928 33.856-80.512 0-62.368-50.56-112.928-112.928-112.928-31.52 0-59.968 12.992-80.48 33.888l0.064 0.064-266.912 266.88c-53.632-28.512-114.752-44.8-179.744-44.8-212.064 0-384 171.936-384 384s171.936 384 384 384zM870.56 0.553c10.304-10.688 24.576-17.376 40.512-17.376 31.2 0 56.48 25.248 56.48 56.448 0 15.936-6.72 30.176-17.376 40.512l0.288 0.256-258.112 258.112c-22.56-30.432-49.44-57.312-79.808-79.936l258.016-258.016zM384 246.665c176.704 0 320 143.328 320 320 0 176.704-143.296 320-320 320-176.672 0-320-143.296-320-320 0-176.672 143.328-320 320-320zM384 790.697c-8.8 0-16-7.168-16-16s7.2-16 16-16c106.048 0 192-85.984 192-192 0-8.832 7.168-16 16-16s16 7.168 16 16c0 123.712-100.256 224-224 224z" />
<glyph unicode="&#xe624;" glyph-name="pause" d="M512 960c-283.386 0-512-228.614-512-512s228.614-512 512-512c283.386 0 512 230.995 512 512s-230.995 512-512 512v0zM512-13.991c-257.191 0-464.372 207.181-464.372 461.991s207.181 464.372 464.372 464.372c257.191 0 464.372-207.181 464.372-464.372s-209.563-461.991-464.372-461.991v0zM557.247 712.97h106.687v-488.98h-106.687v488.98zM379.436 712.97h106.687v-488.98h-106.687v488.98z" />
<glyph unicode="&#xe625;" glyph-name="pdf" horiz-adv-x="759" d="M263.822 449.264c-4.978-10.114-9.956-15.17-14.933-25.284-4.978-5.057-14.933-10.114-24.889-15.17s-19.911-5.057-29.867-5.057h-54.756v-96.079h-34.844v247.783h89.6c9.956 0 19.911 0 29.867-5.057s14.933-10.114 24.889-20.227c4.978-5.057 9.956-15.17 14.933-25.284s4.978-20.227 4.978-30.341c0-5.057-4.978-15.17-4.978-25.284v0zM219.022 509.946c-4.978 5.057-14.933 10.114-29.867 10.114h-49.778v-80.909h49.778c14.933 0 24.889 5.057 29.867 10.114 9.956 5.057 9.956 15.17 9.956 30.341 4.978 15.17 0 25.284-9.956 30.341v0zM477.867 408.81v-25.284c0-10.114-4.978-15.17-4.978-25.284-4.978-10.114-9.956-15.17-14.933-20.227-9.956-10.114-14.933-15.17-24.889-15.17-9.956-5.057-19.911-5.057-34.844-5.057h-84.622v237.669h84.622c9.956 0 24.889 0 34.844-5.057 4.978-5.057 14.933-10.114 19.911-20.227 4.978-5.057 9.956-15.17 14.933-20.227s4.978-15.17 4.978-25.284v-50.568c0-10.114 4.978-15.17 4.978-25.284v0zM443.022 479.605c0 10.114-4.978 20.227-9.956 25.284-14.933 10.114-24.889 15.17-44.8 15.17h-39.822v-171.931h44.8c14.933 0 29.867 5.057 39.822 15.17 4.978 5.057 9.956 15.17 9.956 30.341v85.965zM567.467 520.059v-70.795h99.556v-30.341h-99.556v-101.136h-34.844v237.669h149.333v-30.341h-114.489v-5.057zM39.822-5.847l24.889-25.284v940.563l-24.889-25.284h527.644l-17.599 7.405 159.289-161.817-7.29 17.878v-778.746l24.889 25.284h-686.933zM751.644-56.415v814.503l-173.868 176.628h-562.843v-991.131h736.711zM517.689 732.444v-25.284h209.067v50.568h-184.178l24.889-25.284v176.988h-49.778v-176.988z" />
<glyph unicode="&#xe626;" glyph-name="play" horiz-adv-x="987" d="M493.714 946.036c-273.265 0-493.714-223.418-493.714-500.364s220.449-500.364 493.714-500.364c273.265 0 493.714 225.745 493.714 500.364s-222.746 500.364-493.714 500.364v0zM493.714-5.818c-248.005 0-447.787 202.473-447.787 451.491s199.782 453.818 447.787 453.818c248.005 0 447.787-202.473 447.787-453.818s-202.078-451.491-447.787-451.491v0zM438.602 171.055v521.309l257.191-258.327-257.191-262.982z" />
<glyph unicode="&#xe627;" glyph-name="subscribe" d="M332.084 200.853l-63.276 63.276 28.623 8.81-15.819-83.050-20.752 19.606 79.095 19.774-7.871-28.416zM270.134 310.723l-26.767-140.528 133.836 33.459-107.069 107.069zM335.746 438.213l-5.615-10.213 525.506 508.554h-847.728v-984.735h988.69v811.007l-500.417-500.417 9.627 5.306-245.195-55.367 23.721-23.284 51.412 249.15zM239.404 167.015l280.696 63.383 470.707 470.707-33.756 13.982v-743.495l19.774 19.774h-949.142l19.774-19.774v945.187l-19.774-19.774h779.087l-13.751 33.983-494.772-478.812-58.843-285.163zM988.805 896.891l-23.96 23.96-522.028-522.028 23.96-23.96 522.028 522.028z" />
<glyph unicode="&#xe628;" glyph-name="inscripcion-promedio" horiz-adv-x="1056" d="M281.599 748.967l-15.999-16.167h752v211.2h-1004.8v-1004.8h1004.8v211.2h-745.6l15.999-15.833-6.4 614.4zM256.166 118.4h745.434l-16 16v-179.2l16 16h-972.8l16-16v972.8l-16-16h972.8l-16 16v-179.2l16 16h-752.168l6.733-646.4zM646.1 475.807v27.528c25.933 2.527 44.019 6.749 54.259 12.667s17.887 19.915 22.94 41.991h28.326v-284.46h-38.3v202.274h-67.225zM884.68 346.343c2.394-20.48 11.902-34.643 28.526-42.49 8.511-3.99 18.352-5.984 29.523-5.984 21.278 0 37.037 6.782 47.277 20.347s15.36 28.592 15.36 45.083c0 19.948-6.084 35.375-18.253 46.28s-26.764 16.357-43.786 16.357c-12.368 0-22.974-2.394-31.817-7.181s-16.391-11.437-22.641-19.948l-31.119 1.795 21.743 153.8h148.414v-34.71h-121.484l-12.168-79.394c6.649 5.054 12.966 8.844 18.951 11.37 10.639 4.389 22.94 6.583 36.904 6.583 26.199 0 48.407-8.445 66.627-25.334s27.329-38.3 27.329-64.233c0-26.997-8.345-50.801-25.035-71.414s-43.32-30.92-79.892-30.92c-23.273 0-43.853 6.55-61.739 19.649s-27.894 33.213-30.022 60.343h37.303zM515.2 640h-32v-176h32v176zM585.6 534.4v32h-176v-32h176z" />
<glyph unicode="&#xe629;" glyph-name="arrows-up" horiz-adv-x="768" d="M425.087 895.882l-35.899 56.12-369.124-577.034 71.799-46.709 333.225 520.914h-71.799l333.225-520.914 71.799 46.709-333.225 520.914zM416.367 494.795l-35.723 54.929-368.948-567.303 71.447-47.255 333.225 512.374h-71.447l333.225-512.374 71.447 47.255-333.225 512.374z" />
<glyph unicode="&#xe62a;" glyph-name="arrows-right" horiz-adv-x="1317" d="M1234.134 395.174l72.154 46.156-741.9 474.589-60.055-92.313 669.746-428.432v92.313l-669.746-428.432 60.055-92.313 669.746 428.432zM718.45 406.386l70.623 45.93-729.39 474.362-60.757-91.86 658.767-428.432v91.86l-658.767-428.432 60.757-91.86 658.767 428.432z" />
<glyph unicode="&#xe62b;" glyph-name="inscripcion-certificado" horiz-adv-x="1057" d="M56.155 943.484l-16.516-16.516h987.665l-16.516 16.516v-987.665l16.516 16.516h-184.981l16.516-16.59 3.377 756.512h-657.416v-756.439l16.516 16.516h-181.677l16.516-16.516v987.665zM23.123-60.697h214.71v756.439l-16.516-16.516h624.31l-16.516 16.59-3.377-756.512h218.087v1020.697h-1020.697v-1020.697zM772.955 276.232v33.032h-472.361v-33.032h472.361zM772.955 163.923v33.032h-472.361v-33.032h472.361zM772.955 54.916v33.032h-472.361v-33.032h472.361zM769.652 378.632v33.032h-469.058v-33.032h469.058z" />
<glyph unicode="&#xe62c;" glyph-name="inscripcion-descargar-documento" d="M972.8-35.2l16 16h-956.8l16-16v956.8l-16-16h179.2l-16 16.071-3.272-732.871h636.872v732.8l-16-16h176l-16 16v-956.8zM1004.8 937.6h-208v-732.8l16 16h-604.8l16-16.071 3.272 732.871h-211.272v-988.8h988.8v988.8zM537.6 812.8h-32v-470.4h32v470.4zM374.4 844.8v-32h288v32h-288zM660.099 542.133l-27.398 16.533-112-185.6 27.398-16.533 112 185.6zM413.199 546.644l-26.398-18.087 118.4-172.8 26.398 18.087-118.4 172.8z" />
<glyph unicode="&#xe62d;" glyph-name="inscripcion-dni" d="M649.6 640c0 72.46-58.74 131.2-131.2 131.2s-131.2-58.74-131.2-131.2c0-72.46 58.74-131.2 131.2-131.2s131.2 58.74 131.2 131.2zM419.2 640c0 54.787 44.413 99.2 99.2 99.2s99.2-44.413 99.2-99.2c0-54.787-44.413-99.2-99.2-99.2s-99.2 44.413-99.2 99.2zM9.6-44.8v-16h320v364.8c0 61.563 50.437 112 112 112h169.6c61.563 0 112-50.437 112-112v-364.8h297.6v1011.2h-1011.2v-995.2zM25.6 918.4h979.2l-16 16v-979.2l16 16h-265.6l16-16v348.8c0 79.237-64.763 144-144 144h-169.6c-79.237 0-144-64.763-144-144v-348.8l16 16h-288l16-16v979.2l-16-16z" />
<glyph unicode="&#xe62e;" glyph-name="inscripcion-fotografia" horiz-adv-x="1056" d="M300.8 656l-16.254-15.998 214.021-3.397 32.069 117.585-15.436-11.79h268.8l-14.823 9.978 45.654-112.378h212.551l-3.56 316.8h-1004.621v-1008h1004.8v246.4h-739.2l16-16v476.8zM268.8 163.2h739.2l-16 16v-214.4l16 16h-972.8l16-16v976l-16-16h972.8l-15.999 15.82 3.2-284.8 15.999 16.18h-185.6l14.823-9.978-45.654 112.378h-291.791l-32.015-117.39 15.69 11.788-217.854 3.458v-509.056zM800 432c0 77.762-63.038 140.8-140.8 140.8s-140.8-63.038-140.8-140.8c0-77.762 63.038-140.8 140.8-140.8s140.8 63.038 140.8 140.8zM550.4 432c0 60.089 48.711 108.8 108.8 108.8s108.8-48.711 108.8-108.8c0-60.089-48.711-108.8-108.8-108.8s-108.8 48.711-108.8 108.8z" />
<glyph unicode="&#xe62f;" glyph-name="inscripcion-resolucion" d="M57.6 921.6l-16-16h956.8l-16 16v-956.8l16 16h-179.2l16-16.071 3.272 732.871h-636.872v-732.8l16 16h-176l16-16v956.8zM25.6-51.2h208v732.8l-16-16h604.8l-16 16.071-3.272-732.871h211.272v988.8h-988.8v-988.8zM752 275.2v32h-457.6v-32h457.6zM752 169.6v32h-457.6v-32h457.6zM752 64v32h-457.6v-32h457.6zM758.4 486.4c0 58.321-47.279 105.6-105.6 105.6s-105.6-47.279-105.6-105.6c0-58.321 47.279-105.6 105.6-105.6s105.6 47.279 105.6 105.6zM579.2 486.4c0 40.648 32.952 73.6 73.6 73.6s73.6-32.952 73.6-73.6c0-40.648-32.952-73.6-73.6-73.6s-73.6 32.952-73.6 73.6z" />
<glyph unicode="&#xe800;" glyph-name="icons_ok-05" d="M704.922 34.051c-131.879 0-248.471 88.847-283.54 216.076l-1.65 5.987 6.036 1.47c13.228 3.205 26.287 7.409 38.828 12.481l6.313 2.566 1.759-6.578c28.166-105.135 123.663-178.537 232.243-178.537 132.71 0 240.664 107.966 240.664 240.664 0 132.722-107.954 240.688-240.664 240.688-18.986 0-38.611-2.506-58.344-7.457l-6.602-1.65-0.831 6.758c-1.687 13.553-4.349 27.022-7.939 40.020l-1.65 5.987 6.036 1.47c22.733 5.518 46.056 8.312 69.331 8.312 162.178 0 294.117-131.939 294.117-294.129 0.012-162.19-131.927-294.129-294.105-294.129zM434.694 247.416c35.563-118.844 145.806-201.318 270.228-201.318 155.528 0 282.070 126.542 282.070 282.070 0 155.54-126.53 282.082-282.070 282.082-20.287 0-40.611-2.217-60.5-6.602 2.397-9.505 4.337-19.227 5.771-29.009 18.492 4.156 36.864 6.264 54.73 6.264 139.348 0 252.711-113.375 252.711-252.735 0-139.336-113.363-252.711-252.711-252.711-111.773 0-210.354 74.077-242.050 180.983-9.204-3.458-18.637-6.493-28.178-9.023zM718.74 138.656h-34.949l110.725 313.754h34.973l-110.749-313.754zM700.814 150.703h9.409l102.231 289.659h-9.421l-102.219-289.659zM622.869 235.562c-22.034 0.313-46.369 6.662-61.079 15.782l-4.337 2.699 13.541 32.84 5.963-3.445c14.481-8.349 33.021-13.143 50.863-13.143 22.673 0 38.514 10.613 38.514 25.805 0 13.854-11.071 23.395-38.225 32.937-20.167 6.867-34.382 13.794-44.719 21.757l-4.783 3.698 3.698 4.771c6.361 8.204 12.228 16.661 17.432 25.118l4.759 7.722 5.277-7.385c5.71-7.999 19.793-14.276 39.165-21.227 43.454-15.384 62.006-34.864 62.006-65.114 0-30.082-23.901-52.935-63.958-61.103l-24.118-1.711zM572.573 259.090c13.192-6.722 32.515-11.24 49.983-11.493l22.829 1.566c33.214 6.831 53.513 25.263 53.513 49.188 0 24.612-15.649 40.189-54.007 53.766-17.456 6.277-30.624 11.963-39.117 19.299-3.205-4.879-6.602-9.746-10.168-14.541 8.843-5.771 20.6-11.071 36.394-16.444l0.048-0.024c22.901-8.047 46.309-19.601 46.309-44.321 0-22.287-20.793-37.852-50.562-37.852-17.504 0-35.647 4.168-50.839 11.553l-4.385-10.698zM319.090 273.691c-162.178 0-294.129 131.939-294.129 294.129s131.951 294.129 294.129 294.129c162.178 0 294.117-131.939 294.117-294.129s-131.939-294.129-294.117-294.129zM319.090 849.902c-155.54 0-282.082-126.542-282.082-282.082s126.542-282.082 282.082-282.082c155.528 0 282.070 126.542 282.070 282.082s-126.542 282.082-282.070 282.082zM319.090 315.109c-139.348 0-252.735 113.363-252.735 252.723s113.375 252.735 252.735 252.735c139.348 0 252.711-113.375 252.711-252.735s-113.363-252.723-252.711-252.723zM319.090 808.508c-132.71 0-240.688-107.966-240.688-240.688 0-132.71 107.966-240.676 240.688-240.676 132.71 0 240.664 107.966 240.664 240.676 0 132.722-107.954 240.688-240.664 240.688zM341.365 358.31h-47.345v49.309c-31.093 1.373-63.078 9.842-82.884 22.118l-4.349 2.699 18.022 43.671 5.951-3.445c22.094-12.77 50.405-20.094 77.667-20.094 35.72 0 60.669 17.119 60.669 41.623 0 22.263-17.179 37.382-59.296 52.2-50.092 17.047-96.485 39.755-96.485 89.823 0 42.080 33.033 74.427 84.606 83.45v49.995h46.791v-47.417c26.467-1.41 49.272-7.132 69.548-17.444l5.060-2.566-18.793-43.116-5.674 2.819c-9.577 4.759-31.997 15.902-67.933 15.902-39.406 0-53.381-19.287-53.381-35.792 0-20.131 15.3-31.768 65.488-49.778 63.693-22.54 90.871-50.863 90.871-94.69 0-36.418-27.431-77.101-88.546-87.823v-51.441zM306.068 370.357h23.251v49.778l5.168 0.747c57.597 8.252 83.378 44.478 83.378 76.716 0 38.382-24.010 62.512-82.86 83.342l-0.024 0.012c-49.778 17.866-73.475 31.575-73.475 61.115 0 23.817 20.227 47.839 65.428 47.839 30.479 0 51.911-7.228 67.584-14.432l9.192 21.070c-18.902 8.638-40.285 13.192-65.175 13.902l-5.855 0.169v46.996h-22.697v-48.345l-5.18-0.735c-48.248-6.819-79.426-35.226-79.426-72.343 0-34.804 24.781-56.79 88.377-78.438 33.358-11.746 67.403-28.455 67.403-63.584 0-31.599-29.901-53.67-72.716-53.67-26.901 0-54.814 6.674-77.679 18.42l-8.867-21.492c19.492-10.433 50.080-17.541 78.246-17.95l5.939-0.096v-49.019zM690.321 403.486l-5.674 2.819c-6.264 3.12-20.926 10.409-44.478 10.409-4.674 0-8.975-0.506-13.529-1.602l-11.529-2.759 4.554 10.939c3 7.18 5.746 14.661 8.18 22.251l1.265 3.927 18.565 1.048c20.191-0.554 36.936-4.494 51.706-12.023l5.048-2.578-14.107-32.431zM640.169 428.761c19.564 0 33.635-4.361 44.116-8.975l4.518 10.373c-11.902 5.144-25.371 7.867-40.948 8.312l-9.818-0.566c-1.060-3.144-2.168-6.277-3.325-9.361 1.807 0.145 3.626 0.217 5.457 0.217z" />
<glyph unicode="&#xe801;" glyph-name="iconos-04" d="M775.602 1.428h-527.179c-42.839 0-77.691 34.84-77.691 77.655v368.724c0 42.815 34.852 77.655 77.691 77.655h28.070v150.588c0 129.855 105.653 235.496 235.508 235.496s235.496-105.641 235.496-235.496v-150.588h28.094c42.827 0 77.667-34.84 77.667-77.667v-368.7c0-42.827-34.84-77.667-77.655-77.667zM248.422 515.68c-37.442 0-67.909-30.443-67.909-67.873v-368.712c0-37.43 30.467-67.885 67.909-67.885h527.167c37.442 0 67.885 30.455 67.885 67.885v368.7c0 37.43-30.455 67.885-67.885 67.885h-37.864v160.37c0 124.458-101.256 225.714-225.726 225.714s-225.738-101.256-225.738-225.714v-160.37h-37.84zM512 126.946c-14.974 0-27.166 12.192-27.166 27.166v83.137c-25.973 10.878-43.189 36.515-43.189 64.837 0 38.792 31.563 70.355 70.355 70.355 38.804 0 70.367-31.563 70.367-70.355 0-28.347-17.227-53.983-43.225-64.837v-83.125c0.012-14.987-12.168-27.178-27.142-27.178zM494.616 154.112c0-9.589 7.794-17.384 17.384-17.384 9.577 0 17.372 7.794 17.372 17.384v89.895l3.229 1.169c23.925 8.638 39.996 31.503 39.996 56.898 0 33.406-27.178 60.585-60.597 60.585-33.406 0-60.585-27.178-60.585-60.585 0-25.383 16.059-48.248 39.972-56.898l3.217-1.169v-89.895zM660.167 515.68h-296.334v160.37c0 81.703 66.476 148.179 148.179 148.179s148.167-66.476 148.167-148.179v-160.37zM373.603 525.451h276.793v150.588c0 76.318-62.078 138.397-138.397 138.397s-138.397-62.091-138.397-138.397v-150.588z" />
<glyph unicode="&#xe802;" glyph-name="iconos-03" d="M615.689 786.462h-205.041c-17.878 0-32.419 14.493-32.419 32.322 0 10.36 4.891 19.926 13.192 26.058v42.61c0 35.864 22.359 49.766 35.683 54.862 14.854 5.578 30.407 5.867 47.73 5.59h76.258c17.239 0 33.527 0 48.273-5.59 13.336-5.096 35.695-18.998 35.695-54.862v-42.731c8.228-6.096 13.071-15.601 13.071-25.937-0.012-17.818-14.565-32.322-32.443-32.322zM467.209 938.616c-13.698 0-25.492-0.807-36.792-5.048-11.047-4.229-29.636-15.854-29.636-46.116v-47.682l-2.205-1.373c-6.879-4.289-10.987-11.613-10.987-19.613 0-12.661 10.348-22.962 23.058-22.962h205.041c12.722 0 23.058 10.3 23.058 22.962 0 7.963-4.060 15.252-10.866 19.492l-2.193 1.373v47.803c0 30.262-18.589 41.888-29.66 46.128-13.119 4.975-28.576 4.975-44.936 4.975h-76.318c-2.59 0.036-5.108 0.060-7.566 0.060zM579.56 841.746h-132.674l0.157 49.369 3.963 0.602c5.722 0.867 17.022 1.434 24.696 0.904l81.029-0.048c6.939-0.060 14.119-0.133 18.854-0.855l3.963-0.614v-49.357zM456.27 851.107h113.929v31.768c-3.963 0.265-8.963 0.301-13.541 0.349l-5.036 0.060h-76.246c-5.722 0.386-13.469 0.157-19.010-0.349l-0.096-31.828zM678.816 386.717c-5.566 0-10.939 1.41-15.541 4.072l4.53 8.192c3.482-1.843 7.18-2.771 10.999-2.771h1.723l0.891-9.276c-0.928-0.193-1.662-0.217-2.602-0.217zM678.816 441.989h-30.19l27.359 9.12c1.096 0.361 2.096 0.361 2.831 0.361h2.217l0.663-9.312c-1.12-0.157-2.072-0.169-2.879-0.169zM678.816-51.989l-335.607 0.133c-47.959 0-72.463 41.755-74.945 80.547l-0.133 124.615c-1.072 9.854-1.157 29.286 9.867 46.911-10.023 16.468-10.517 34.057-9.854 43.345l-0.012 130.867c-0.012 0-1.229 23.588 12.36 44.851-11.734 18.42-12.36 38.201-12.36 42.129v64.247c0 70.319 44.165 103.834 79.655 130.759 32.876 25.070 56.465 43.044 56.465 85.221 0 17.818 14.541 32.322 32.419 32.322s32.419-14.493 32.419-32.322c0-74.186-45.345-108.737-81.787-136.505-34.78-26.287-54.332-42.851-54.332-79.474v-64.5c0.337-9.818 5.144-9.818 10.24-9.818h248.928v-64.645h-248.928c-5.987 0-7.445-1.349-7.59-1.494-1.662-1.723-2.602-6.903-2.65-9.204v-134.12c0-1.53-0.036-3.205-0.337-4.734 0.096-0.94 0.506-3.012 0.867-3.578 0 0 0 0 0 0 0.096 0 2.482-1.385 9.698-1.385h244.254c17.95 0 32.539-14.493 32.539-32.322s-14.601-32.322-32.539-32.322h-244.242c-7.915 0-10.493-1.662-10.517-1.687-0.108-0.434-0.373-3.506-0.253-4.831 0.337-1.506 0.53-3.494 0.53-5.879v-124.277c0.036 0 0.771-4.903 2.65-9.782 1.482-3.771 4.012-8.312 7.59-8.312l335.607-0.12c5.228 0 6.638 1.41 7.168 1.94 3.482 3.554 5.168 13.143 5.060 15.529v125.012c0.12 3.59-0.988 8.493-2.819 10.324-1.325 1.265-4.867 2.072-9.397 2.072-17.878 0-32.419 14.493-32.419 32.322s14.541 32.322 32.419 32.322c9.915 0 12.866 2.072 12.902 2.096-0.301-0.145-0.108 0.988-0.072 2-0.41 2.036-0.602 3.867-0.602 5.59v132.59c0.12 3.59-0.988 8.493-2.819 10.324-1.181 1.169-4.036 1.964-7.445 2.072h-1.952c-5.361 0-10.541 1.301-15.384 3.867-2.614 1.373-5.216 3.313-7.517 5.614-6.144 6.12-9.517 14.228-9.517 22.853 0 8.541 3.373 16.613 9.517 22.721 1.157 1.157 2.313 2.156 3.47 3.012 1.289 1 2.65 1.891 4.156 2.65 2.036 1.096 3.903 1.879 5.746 2.409 1.952 0.554 4.012 0.964 6.096 1.241 0.554 0.157 1.446 0.157 2.096 0.157h1.349c0.446 0 0.952-0.012 1.554 0.072 6.554 0.169 10.336 1.952 10.662 10.409v63.825c0 36.611-18.516 52.369-54.007 79.318-36.647 27.913-81.992 62.476-81.992 136.529 0 17.818 14.541 32.322 32.419 32.322s32.419-14.493 32.419-32.322c0-42.249 23.672-60.211 56.428-85.064 35.707-27.226 79.691-60.741 79.691-130.783v-64.5c-0.145-14.589-4.771-29.66-12.806-41.9 13.095-20.094 12.866-41.924 12.686-46.261v-129.277c0.952-7.638 1.711-28.009-11.119-46.526 11.806-19.986 11.216-41.056 11.107-43.49v-123.121c0.012-0.193 1.060-36.515-23.925-61.536-13.698-13.77-32.069-21.046-53.152-21.046zM436.658 764.597c-12.722 0-23.058-10.3-23.058-22.962 0-46.803-27.768-67.97-59.922-92.485-34.093-25.865-76.198-57.814-76.198-123.482v-64.247c0-3.638 0.602-22.612 12.457-39.442l1.903-2.699-1.915-2.699c-13.457-18.998-12.493-41.538-12.469-41.755l0.012-131.578c-0.494-7.24-0.506-24.962 9.927-40.37l0.807-1.193v-2.903l-0.843-1.337c-10.987-15.77-10.927-34.105-9.915-43.634l0.157-124.808c2.193-34.286 23.672-71.499 65.596-71.499l335.607-0.133c18.528 0 34.611 6.325 46.502 18.287 21.793 21.829 21.215 54.441 21.203 54.754v123.506c0.108 2.446 0.663 22.624-11.312 40.924l-1.819 2.783 2.036 2.638c12.722 16.456 12.023 35.479 11.131 42.9l-0.036 130.036c0.108 2.65 0.663 24.648-12.806 43.333l-1.976 2.747 1.988 2.735c8.072 11.144 12.782 25.431 12.914 39.189v64.452c0 65.403-41.936 97.364-75.631 123.061-32.623 24.745-60.488 45.887-60.488 92.786 0 12.661-10.348 22.962-23.058 22.962s-23.058-10.3-23.058-22.962c0-69.415 43.309-102.412 78.101-128.928 35.973-27.311 57.898-46.032 57.898-86.92v-64.006c-0.265-7.252-3.12-19.191-19.251-19.552-0.566-0.108-1.518-0.12-2.325-0.12h-1.349c-2.494-0.289-4.108-0.614-5.626-1.048-1.181-0.337-2.421-0.867-4-1.711-1.072-0.542-1.928-1.12-2.795-1.783-0.891-0.663-1.711-1.373-2.53-2.193-4.361-4.337-6.758-10.059-6.758-16.095 0-6.12 2.397-11.878 6.758-16.227 1.626-1.614 3.506-3.024 5.289-3.963 3.494-1.855 7.192-2.783 11.011-2.783h1.723c4.722-0.133 10.529-1.072 14.276-4.795 4.698-4.686 5.71-12.963 5.566-17.119v-132.385c0-1.217 0.169-2.578 0.506-4.168l0.108-0.988c0-2.193-0.301-6.24-2.325-8.662-2.735-3.313-9.987-5.24-19.866-5.24-12.722 0-23.058-10.3-23.058-22.962s10.348-22.962 23.058-22.962c7.288 0 12.649-1.59 15.938-4.734 4.771-4.759 5.783-13.023 5.638-17.191v-124.639c0.133-2.867-1.373-15.806-7.746-22.311-2.036-2.048-5.65-4.722-13.83-4.722l-335.607 0.12c-4.891 0-11.686 2.482-16.312 14.276-2.397 6.24-3.205 12.264-3.241 12.517l-0.036 124.94c0 1.723-0.12 3.048-0.386 4.301-0.060 0.289-0.928 8.529 2.59 12.722 2.313 2.976 8.686 4.747 17.396 4.747h244.254c12.782 0 23.179 10.3 23.179 22.962s-10.397 22.962-23.179 22.962h-244.254c-5.722 0-13.264 0.771-16.637 4.469-2.891 3.084-3.205 8.565-3.205 10.782 0.277 1.855 0.241 2.879 0.241 3.807v134.144c0 0.096 0.145 10.373 5.265 15.661 2.807 2.939 7.505 4.373 14.336 4.373h239.568v45.911h-239.568c-4.686 0-18.95 0-19.601 19.022v64.657c0 40.984 21.974 59.669 57.838 86.775 34.973 26.648 78.282 59.645 78.282 129.193 0 12.661-10.348 22.962-23.070 22.962z" />
<glyph unicode="&#xe803;" glyph-name="iconos-02" d="M979.366 182.941h-934.731c-18.492 0-33.539 14.95-33.539 33.322v463.474c0 18.372 15.047 33.322 33.539 33.322h934.731c18.492 0 33.527-14.95 33.527-33.322v-463.474c0.012-18.372-15.035-33.322-33.527-33.322zM44.634 697.916c-10.144 0-18.396-8.156-18.396-18.167v-463.474c0-10.023 8.252-18.179 18.396-18.179h934.731c10.144 0 18.384 8.156 18.384 18.179v463.462c0 10.023-8.24 18.167-18.384 18.167h-934.731zM960.982 234.442h-95.003l0.699 8.204c4.132 49.272 36.322 81.209 86.088 85.438l8.216 0.699v-94.341zM882.772 249.597h63.066v62.392c-34.9-5.686-57.392-27.937-63.066-62.392zM829.344 234.442h-633.386l-0.494 7.048c-4.927 70.969-52.477 118.097-124.085 123l-7.060 0.494v167.346l7.060 0.482c72.74 4.891 119.121 50.381 124.073 121.711l0.494 7.048h633.386l0.494-7.048c4.879-70.174 52.417-116.808 124.085-121.711l7.060-0.494v-167.346l-7.060-0.494c-71.608-4.891-119.145-52.031-124.085-123l-0.482-7.035zM209.944 249.597h605.413c7.855 71.764 58.127 121.615 130.47 129.397v139.312c-73.463 7.71-122.675 56.043-130.482 128.108h-605.401c-7.806-72.162-57.019-120.483-130.482-128.12v-139.312c72.355-7.782 122.627-57.633 130.482-129.385zM158.045 234.442h-95.015v94.328l8.192-0.675c49.658-4.108 81.848-36.033 86.112-85.426l0.711-8.228zM78.173 249.597h63.042c-5.758 34.551-28.238 56.814-63.042 62.416v-62.416zM63.030 568.29v93.268h95.015l-0.711-8.228c-4.144-47.899-35.454-78.559-85.908-84.125l-8.397-0.916zM78.173 646.415v-60.934c35.816 6.397 57.416 27.287 63.042 60.934h-63.042zM960.982 568.519l-8.192 0.675c-50.598 4.192-81.98 34.864-86.112 84.161l-0.699 8.204h95.003v-93.039zM882.76 646.415c5.554-34.756 27.166-55.73 63.078-61.175v61.175h-63.078z" />
<glyph unicode="&#xe804;" glyph-name="icons_ok-06" d="M895.795 122.115h-808.382c-42.345 0-76.788 34.587-76.788 77.101v497.568c0 42.514 34.443 77.101 76.788 77.101h849.161c42.345 0 76.8-34.587 76.8-77.101v-546.069c0-13.119-10.638-23.805-23.721-23.805s-23.721 10.686-23.721 23.805v546.069c0 16.276-13.167 29.515-29.371 29.515h-849.149c-16.191 0-29.371-13.252-29.371-29.515v-497.568c0-16.276 13.167-29.503 29.371-29.503h808.382c13.071 0 23.721-10.686 23.721-23.805s-10.65-23.793-23.721-23.793zM87.413 761.838c-35.695 0-64.741-29.19-64.741-65.054v-497.568c0-35.876 29.045-65.054 64.741-65.054h808.382c6.433 0 11.674 5.277 11.674 11.758s-5.24 11.746-11.674 11.746h-808.382c-22.841 0-41.418 18.637-41.418 41.55v497.568c0 22.914 18.577 41.562 41.418 41.562h849.161c22.841 0 41.418-18.649 41.418-41.562v-546.069c0-6.481 5.24-11.758 11.674-11.758s11.674 5.277 11.674 11.758v546.069c0 35.876-29.045 65.054-64.753 65.054h-849.173zM529.685 228.731h-389.204c-13.071 0-23.709 10.686-23.709 23.805s10.638 23.793 23.709 23.793h389.204c13.071 0 23.721-10.674 23.721-23.793s-10.638-23.805-23.721-23.805zM140.481 264.27c-6.433 0-11.662-5.277-11.662-11.746 0-6.481 5.228-11.758 11.662-11.758h389.204c6.433 0 11.674 5.277 11.674 11.758 0 6.469-5.24 11.746-11.674 11.746h-389.204zM671.214 335.36h-106.135c-13.071 0-23.721 10.674-23.721 23.793s10.638 23.793 23.721 23.793h106.135c13.071 0 23.721-10.686 23.721-23.805s-10.65-23.781-23.721-23.781zM565.079 370.899c-6.433 0-11.674-5.277-11.674-11.758 0-6.469 5.24-11.746 11.674-11.746h106.135c6.433 0 11.674 5.277 11.674 11.746 0 6.481-5.24 11.758-11.674 11.758h-106.135zM458.933 335.36h-106.147c-13.071 0-23.721 10.674-23.721 23.793s10.638 23.805 23.721 23.805h106.147c13.071 0 23.721-10.686 23.721-23.805s-10.65-23.793-23.721-23.793zM352.774 370.899c-6.433 0-11.674-5.277-11.674-11.758 0-6.469 5.24-11.746 11.674-11.746h106.147c6.433 0 11.674 5.277 11.674 11.746 0 6.481-5.24 11.758-11.674 11.758h-106.147zM246.627 335.36h-106.147c-13.071 0-23.709 10.674-23.709 23.793s10.638 23.805 23.709 23.805h106.147c13.071 0 23.721-10.686 23.721-23.805s-10.65-23.793-23.721-23.793zM140.481 370.899c-6.433 0-11.662-5.277-11.662-11.758 0-6.469 5.228-11.746 11.662-11.746h106.147c6.433 0 11.674 5.277 11.674 11.746 0 6.481-5.24 11.758-11.674 11.758h-106.147zM299.707 441.964h-141.529c-22.829 0-41.406 18.649-41.406 41.562v142.167c0 22.914 18.577 41.562 41.406 41.562h141.541c22.829 0 41.406-18.649 41.406-41.562v-142.155c-0.012-22.926-18.589-41.574-41.418-41.574zM158.178 655.221c-16.191 0-29.359-13.252-29.359-29.515v-142.167c0-16.276 13.167-29.515 29.359-29.515h141.541c16.179 0 29.359 13.252 29.359 29.515v142.155c0 16.276-13.167 29.515-29.359 29.515h-141.541zM305.73 477.515h-153.576v154.202h153.588v-154.202zM164.201 489.562h129.494v130.108h-129.494v-130.108z" />
<glyph unicode="&#xe805;" glyph-name="icons_ok-08" d="M479.485 50.158c-60.946 0-105.171 26.757-105.171 63.596s44.237 63.584 105.171 63.584c60.946 0 105.183-26.744 105.183-63.584s-44.237-63.596-105.183-63.596zM479.485 165.304c-53.091 0-93.124-22.155-93.124-51.537s40.032-51.549 93.124-51.549 93.136 22.167 93.136 51.549-40.044 51.537-93.136 51.537zM479.485 81.071c-47.128 0-73.198 18.697-73.198 31.611s26.070 31.611 73.198 31.611 73.198-18.697 73.198-31.611c-0.012-12.89-28.515-31.611-73.198-31.611zM479.485 132.247c-40.129 0-60.247-14.95-61.163-19.709 0.904-4.469 21.034-19.42 61.163-19.42 40.84 0 59.982 15.902 61.187 19.974-0.94 4.204-21.058 19.155-61.187 19.155zM511.47-26.606c-176.754 0-315.223 77.571-315.223 176.61v504.302c0 41.96 24.636 80.968 71.319 112.929-0.096 1.422-0.241 2.843-0.386 4.265-0.289 2.867-0.566 5.746-0.566 8.614 0 81.233 105.255 142.493 244.844 142.493 140.192 0 245.917-60.802 245.917-141.432 0-4.265 0-8.65-0.542-13.143 46.417-31.925 70.909-70.825 70.909-112.676 0 0 0-126.338-0.133-252.699-0.060-63.163-0.169-126.338-0.313-173.731-0.157-49.803-0.229-70.415-1.53-78.944h0.916c0-99.015-138.457-176.586-315.211-176.586zM511.47 910.571c-132.722 0-232.797-56.079-232.797-130.446 0-2.47 0.253-4.939 0.506-7.409 0.277-2.855 0.554-5.734 0.554-8.59v-3.229l-2.686-1.783c-44.972-29.973-68.753-66.211-68.753-104.797v-504.302c0-92.28 133.168-164.563 303.176-164.563s303.176 72.282 303.176 164.563l0.205 6.024c0.687 43.924 0.867 339.582 0.867 499.339 0 38.575-23.781 74.824-68.753 104.809l-3.349 2.241 0.783 3.951c0.952 4.759 0.952 9.638 0.952 14.806-0.024 73.764-100.557 129.385-233.882 129.385zM512.53 36.304c-150.926 0-252.314 58.79-252.314 113.7 0 21.251 15.288 42.888 44.213 62.548l9.409 6.397v-10.192c15.505-17.047 46.092-27.154 82.474-27.154 53.091 0 93.124 22.167 93.124 51.549 0 6.626-2.277 12.782-7.409 19.938l-6.807 9.529h11.71c4.12 0 7.999 0.253 11.854 0.518 4.132 0.277 8.264 0.554 12.661 0.554h20.239l-6.807-9.529c-4.265-5.963-6.337-12.143-6.337-18.878 0-23.745 26.311-37.394 41.984-43.418l3.867-1.482v-8.397c0-29.383 40.032-51.549 93.124-51.549 45.863 0 82.571 16.384 91.353 40.791l4.771 13.252 6.289-12.589c3.433-6.867 4.903-13.095 4.903-20.829v-2.132c-1.12-54.453-102.773-112.628-252.302-112.628zM306.345 199.168c-22.034-16.131-34.081-33.443-34.081-49.164 0-47.983 102.749-101.653 240.267-101.653 140.36 0 239.279 53.079 240.267 100.713v2c0 0.855-0.024 1.687-0.060 2.482-16.601-21.745-51.911-35.153-95.196-35.153-60.946 0-105.171 26.757-105.171 63.596v0.193c-29.612 12.36-45.851 31.13-45.851 53.115 0 5.662 1.084 11.131 3.253 16.348-3.494-0.060-6.819-0.277-10.156-0.506-0.759-0.060-1.53-0.108-2.289-0.157 2.831-5.915 4.18-11.746 4.18-17.818 0-36.852-44.237-63.596-105.171-63.596-38.695 0-71.849 10.987-89.992 29.6zM658.601 149.305c-39.828 0-66.705 13.601-72.668 27.034l-4.542 10.24 11.047-1.843c6.084-1.024 13.252-2.060 20.335-2.060 32.973 0 61.826 8.782 79.173 24.082l2.409 2.132 3.108-0.819c20.54-5.397 34.346-16.312 34.346-27.142-0.024-12.926-26.082-31.624-73.21-31.624zM610.412 170.665c10.433-4.987 26.624-9.3 48.188-9.3 40.129 0 60.247 14.95 61.163 19.709-0.012 2-5.602 9.457-22.395 14.517-19.673-15.89-50.248-24.949-84.594-24.949-0.795-0.012-1.578 0-2.361 0.024zM396.324 200.481c-36.936 0-58.501 13.071-64.235 17.071l-0.169 0.12c-5.18 3.891-8.794 9.818-8.794 14.42 0 1.795 0.133 3.807 1.699 6.951l2.903 5.807 5.578-3.337c3.879-2.313 9.433-4.12 14.806-5.855l4.132-1.012c13.059-4.012 28.299-6.132 44.080-6.132 23.841 0 46.357 4.698 63.404 13.228l3.867 1.94 3.072-3.060c2.843-2.819 2.843-6.819 2.843-8.529 0-12.914-26.070-31.611-73.186-31.611zM344.112 224.298c11.252-6.144 29.503-11.77 52.212-11.77 25.949 0 43.526 6.252 52.959 11.951-29.624-9.782-69.777-10.577-99.701-1.614l-2.072 0.301-3.12 1.024c-0.096 0.036-0.181 0.072-0.277 0.108zM613.822 202.613c-14.601 0-28.166 1.952-39.225 5.638-19.42 5.108-32.937 15.408-33.912 25.853-0.566 1.976-0.434 4.156 0.398 6.277 2.662 6.795 13.119 14.179 27.973 19.745l0.386 0.133c9.517 2.855 24.347 6.662 43.309 6.662 39.828 0 66.705-13.601 72.668-27.034l0.518-1.554c0.506-1.048 1.072-2.409 1.072-4.096 0-3.18-1.217-5.277-2.108-6.807l-1.518-2.482c-9.71-11.119-34.997-22.335-69.56-22.335zM552.671 236.634v-1.337c0-2.265 6.24-10.469 25.359-15.505 7.24-2.397 18.95-5.132 35.78-5.132 34.37 0 53.983 11.312 60.055 17.721 0.205 0.373 0.41 0.735 0.602 1.060 0.361-0.012 0.566-0.301 0.675-0.47-0.349 0.699-0.759 1.554-1.012 2.578-3.939 7.048-25.046 19.323-61.38 19.323-17.239 0-30.865-3.458-39.659-6.084-12.505-4.734-18.781-9.854-20.42-12.155zM260.216 241.092v356.569l10.324-10.577c45.827-46.899 138.541-76.029 241.977-76.029s196.162 29.13 241.977 76.029l10.324 10.577v-356.111l-9.577 6.999c-56.477 41.273-144.95 64.946-242.736 64.946-6.855 0-13.71-0.253-20.564-0.53-7.011-0.253-14.011-0.53-21.022-0.53h-1.771l-1.494 0.964c-18.155 11.758-43.502 18.227-71.355 18.227-53.091 0-93.136-22.167-93.136-51.549 0-1.807 0.012-2.879 0.434-3.71l2.602-5.204-5.108-2.783c-13.445-7.313-23.058-13.396-31.166-19.721l-9.71-7.566zM512.53 325.542c94.967 0 181.67-21.986 240.267-60.621v304.044c-50.947-44.008-139.288-69.957-240.267-69.957s-189.307 25.949-240.267 69.957v-303.779c5.493 3.686 11.686 7.433 18.986 11.517-0.12 1.241-0.12 2.373-0.12 3.361 0 36.852 44.237 63.596 105.183 63.596 29.829 0 56.187-6.626 76.366-19.191 6.277 0.048 12.553 0.277 18.818 0.53 7.023 0.277 14.035 0.542 21.034 0.542zM396.324 248.465c-10.939 0-19.733 1.096-28.238 2.156-20.54 4.072-37.346 12.433-43.671 21.468-2.337 2.771-2.337 6.385-2.337 7.987 0 5.192 2.964 10.035 8.794 14.42l1.614 1.205h1.397c0.325 0.193 0.723 0.398 1.181 0.578 10.915 7.71 29.479 13.432 50.031 15.384l12.3 0.024c47.128 0 73.198-18.697 73.198-31.611 0-1.795-0.133-3.819-1.711-6.963-6.831-10.324-23.034-18.468-43.695-22.408-9.144-1.144-17.938-2.241-28.865-2.241zM333.981 279.426l0.181-0.265c2.939-4.409 14.842-12.469 35.623-16.637 8.3-1.012 16.336-2.012 26.54-2.012 10.192 0 18.239 1 26.757 2.060 21.986 4.192 32.611 12.396 35.394 16.589 0.060 0.217 0.060 0.301 0.060 0.916-0.891 4.614-21.022 19.564-61.151 19.564h-11.734c-21.89-2.108-37.37-8.481-44.357-13.734l-2.289-1.205c-0.59-0.301-1.265-0.59-2.072-0.783-2.048-1.759-2.819-3.108-2.819-3.843 0.024-0.687-0.036-0.747-0.133-0.651zM512.53 531.004c-135.734 0-248.916 53.26-252.302 118.724v5.638c0 20.866 14.167 41.755 40.96 60.392l4.132 2.879 3.566-3.566c40.285-40.285 116.423-64.343 203.643-64.343s163.358 24.058 203.643 64.343l3.566 3.566 4.132-2.879c26.419-18.372 40.96-39.43 40.96-59.32v-6.397c-2.241-65.729-115.435-119.037-252.302-119.037zM304.068 702.988c-20.829-15.456-31.792-31.864-31.792-47.622v-5.325c3-57.85 113.038-106.99 240.267-106.99 128.241 0 238.267 49.092 240.267 107.195v6.192c0 14.878-11.252 31.298-31.792 46.55-43.297-40.358-120.675-64.307-208.474-64.307s-165.177 23.962-208.474 64.307zM512.53 701.591c-52.477 0-102.087 10.36-136.096 28.419-2.096 1.048-4.036 2.156-5.975 3.265-1.783 1.024-3.578 2.048-5.614 3.072-23.299 14.685-35.322 30.082-35.322 44.839 0 6.409 2.289 12.71 7.409 20.396l0.253 0.349c8.084 10.397 21.709 20.576 39.382 29.407 37.201 18.034 86.739 28.359 135.963 28.359 49.61 0 100.436-10.601 135.963-28.359 17.673-8.83 31.286-19.010 39.382-29.407 5.385-8.047 7.674-14.336 7.674-20.757 0-14.758-12.035-30.154-34.792-44.538-3.313-2.217-7.722-4.409-11.975-6.554-35.792-17.89-86.618-28.491-136.252-28.491zM346.835 794.714c-3.638-5.493-5.265-9.686-5.265-13.529 0-10.12 10.638-22.636 29.178-34.358 1.735-0.831 3.71-1.964 5.686-3.096 1.759-1 3.518-2.012 5.518-3.012 32.455-17.239 80.005-27.082 130.566-27.082 47.851 0 96.654 10.132 130.578 27.082 4.204 2.108 8.132 4.060 11.083 6.024 18.661 11.794 29.298 24.323 29.298 34.43 0 3.891-1.662 8.132-5.385 13.722-6.734 8.638-18.926 17.637-34.997 25.672-33.925 16.962-82.739 27.094-130.578 27.094-47.465 0-95.087-9.879-130.638-27.13-15.89-7.951-28.034-16.878-35.045-25.817z" />
<glyph unicode="&#xe806;" glyph-name="all_classes-09-09" d="M957.018 9.029h-403.709v403.709h403.709v-403.709zM565.356 21.076h379.615v379.615h-379.615v-379.615zM957.018 483.262h-403.709v403.709h403.709v-403.709zM565.356 495.309h379.615v379.615h-379.615v-379.615zM470.691 9.029h-403.709v403.709h403.709v-403.709zM79.029 21.076h379.615v379.615h-379.615v-379.615zM470.691 483.262h-403.709v403.709h403.709v-403.709zM79.029 495.309h379.615v379.615h-379.615v-379.615z" />
<glyph unicode="&#xe982;" glyph-name="spinner9" d="M512 960c-278.748 0-505.458-222.762-511.848-499.974 5.92 241.864 189.832 435.974 415.848 435.974 229.75 0 416-200.576 416-448 0-53.020 42.98-96 96-96s96 42.98 96 96c0 282.77-229.23 512-512 512zM512-64c278.748 0 505.458 222.762 511.848 499.974-5.92-241.864-189.832-435.974-415.848-435.974-229.75 0-416 200.576-416 448 0 53.020-42.98 96-96 96s-96-42.98-96-96c0-282.77 229.23-512 512-512z" />
</font>
</defs>
</svg>
