<?xml version="1.0" encoding="UTF-8" standalone="no"?>
<svg width="52px" height="52px" viewBox="0 0 52 52" version="1.1" xmlns="http://www.w3.org/2000/svg" xmlns:xlink="http://www.w3.org/1999/xlink" xmlns:sketch="http://www.bohemiancoding.com/sketch/ns">
    <!-- Generator: Sketch 3.2 (9961) - http://www.bohemiancoding.com/sketch -->
    <title>admisiones-alto-rendimiento</title>
    <desc>Created with Sketch.</desc>
    <defs></defs>
    <g id="Page-1" stroke="none" stroke-width="1" fill="none" fill-rule="evenodd" sketch:type="MSPage">
        <g id="Desktop" sketch:type="MSArtboardGroup" transform="translate(-531.000000, -262.000000)" fill="#666666">
            <g id="admisiones-alto-rendimiento" sketch:type="MSLayerGroup" transform="translate(531.000000, 262.000000)">
                <path d="M26.843,22.888 L25.843,22.888 L25.843,28.379 L26.843,28.379 L26.843,22.888 Z" id="Shape" sketch:type="MSShapeGroup"></path>
                <path d="M23.598,25.133 L23.598,26.133 L29.088,26.133 L29.088,25.133 L23.598,25.133 Z" id="Shape" sketch:type="MSShapeGroup"></path>
                <path d="M0.448,51.377 L0.448,51.877 L0.948,51.877 L15.713,51.877 L16.2132331,51.877 L16.2129999,51.3767669 L16.1959999,14.9057669 L15.6947535,15.4059984 L22.9147535,15.4239984 L23.4181524,15.4252535 L23.4159954,14.9218575 L23.4079954,13.0548575 L22.908,13.557 L29.892,13.557 L29.3920251,13.051995 L29.3730251,14.949995 L29.3679763,15.4543337 L29.8723399,15.4549996 L37.4473399,15.4649996 L36.9480001,14.9652609 L36.9670001,51.3772609 L36.9672608,51.877 L37.467,51.877 L51.046,51.877 L51.546,51.877 L51.546,51.377 L51.546,1.302 L51.546,0.802 L51.046,0.802 L0.948,0.802 L0.448,0.802 L0.448,1.302 L0.448,51.377 Z M0.948,1.802 L51.046,1.802 L50.546,1.302 L50.546,51.377 L51.046,50.877 L37.467,50.877 L37.9669999,51.3767391 L37.9479999,14.9647391 L37.9477395,14.4656593 L37.4486601,14.4650004 L29.8736601,14.4550004 L30.3729749,14.960005 L30.3919749,13.062005 L30.3970303,12.557 L29.892,12.557 L22.908,12.557 L22.4058529,12.557 L22.4080046,13.0591425 L22.4160046,14.9261425 L22.9172465,14.4240016 L15.6972465,14.4060016 L15.1957663,14.4047513 L15.1960001,14.9062331 L15.2130001,51.3772331 L15.713,50.877 L0.948,50.877 L1.448,51.377 L1.448,1.302 L0.948,1.802 Z" id="Shape" sketch:type="MSShapeGroup"></path>
                <path d="M34.499,18.647 L34.499,17.647 L18.255,17.647 L18.255,18.647 L34.499,18.647 Z" id="Shape" sketch:type="MSShapeGroup"></path>
                <path d="M18.909,17.95 L17.909,17.95 L17.909,51.393 L18.909,51.393 L18.909,17.95 Z" id="Shape" sketch:type="MSShapeGroup"></path>
                <path d="M35.119,17.95 L34.119,17.95 L34.119,51.393 L35.119,51.393 L35.119,17.95 Z" id="Shape" sketch:type="MSShapeGroup"></path>
                <path d="M23.598,47.626 L23.598,48.626 L29.088,48.626 L29.088,47.626 L23.598,47.626 Z" id="Shape" sketch:type="MSShapeGroup"></path>
            </g>
        </g>
    </g>
</svg>