<?xml version="1.0" encoding="UTF-8" standalone="no"?>
<svg width="52px" height="53px" viewBox="0 0 52 53" version="1.1" xmlns="http://www.w3.org/2000/svg" xmlns:xlink="http://www.w3.org/1999/xlink" xmlns:sketch="http://www.bohemiancoding.com/sketch/ns">
    <!-- Generator: Sketch 3.2 (9961) - http://www.bohemiancoding.com/sketch -->
    <title>admisiones-bachillerato</title>
    <desc>Created with Sketch.</desc>
    <defs></defs>
    <g id="Page-1" stroke="none" stroke-width="1" fill="none" fill-rule="evenodd" sketch:type="MSPage">
        <g id="Desktop" sketch:type="MSArtboardGroup" transform="translate(-371.000000, -262.000000)" fill="#666666">
            <g id="admisiones-bachillerato" sketch:type="MSLayerGroup" transform="translate(371.000000, 263.000000)">
                <path d="M40.252,18.871 L40.252,17.871 L10.021,17.871 L10.021,18.871 L40.252,18.871 Z" id="Shape" sketch:type="MSShapeGroup"></path>
                <path d="M38.297,14.211 L38.297,13.211 L12.183,13.211 L12.183,14.211 L38.297,14.211 Z" id="Shape" sketch:type="MSShapeGroup"></path>
                <path d="M25.74,6.448 L24.74,6.448 L24.74,49.997 L25.74,49.997 L25.74,6.448 Z" id="Shape" sketch:type="MSShapeGroup"></path>
                <path d="M33.055,32.601 L33.055,31.601 L13.506,31.601 L13.506,32.601 L33.055,32.601 Z" id="Shape" sketch:type="MSShapeGroup"></path>
                <path d="M33.68,28.074 L33.68,27.074 L10.803,27.074 L10.803,28.074 L33.68,28.074 Z" id="Shape" sketch:type="MSShapeGroup"></path>
                <path d="M40.773,23.384 L40.773,22.384 L10.021,22.384 L10.021,23.384 L40.773,23.384 Z" id="Shape" sketch:type="MSShapeGroup"></path>
                <path d="M50.564,0.728 L50.564,-0.272 L0.867,-0.272 L0.867,0.728 L50.564,0.728 Z" id="Shape" sketch:type="MSShapeGroup"></path>
                <path d="M1.367,0.228 L0.367,0.228 L0.367,49.903 L1.367,49.903 L1.367,0.228 Z" id="Shape" sketch:type="MSShapeGroup"></path>
                <path d="M51.367,0.228 L50.367,0.228 L50.367,49.903 L51.367,49.903 L51.367,0.228 Z" id="Shape" sketch:type="MSShapeGroup"></path>
                <path d="M25.18,50.403 L25.18,49.403 L0.867,49.403 L0.867,50.403 L25.18,50.403 Z" id="Shape" sketch:type="MSShapeGroup"></path>
                <path d="M34.099,50.1901958 L34.099499,51.4642469 L34.9656721,50.5299287 L39.5796721,45.5529287 L38.8459669,45.5525389 L43.4399669,50.5185389 L44.307,51.4557802 L44.307,50.179 L44.307,37.422 L43.307,37.422 L43.307,50.179 L44.1740331,49.8394611 L39.5800331,44.8734611 L39.213391,44.47713 L38.8463279,44.8730713 L34.2323279,49.8500713 L35.099,50.1898042 L35.094,37.4218042 L34.094,37.4221958 L34.099,50.1901958 Z" id="Shape" sketch:type="MSShapeGroup"></path>
                <path d="M33.2967435,31.1150395 C32.611322,30.3707225 32.3301376,30.0654412 31.9206683,29.621149 L31.7067727,30.4357667 C32.5008934,30.1790986 33.1739039,29.9621795 34.3582091,29.5809485 L34.7882483,29.4425177 L34.6939979,29.0006878 C34.632021,28.7100662 34.632021,28.7100662 34.5704518,28.4210651 C34.4614982,27.909493 34.3469051,27.3707167 34.1170551,26.2899564 L33.5276431,26.883825 C34.7318714,27.1305511 35.420751,27.2720349 36.2279061,27.4386734 L36.6622684,27.5283482 L36.8031175,27.1077846 C36.8586245,26.9420549 36.8586245,26.9420549 36.9140323,26.7766476 C37.3910786,25.3525762 37.4620329,25.1406486 37.6832419,24.4784127 L36.8711617,24.6885991 C37.1678863,24.960561 37.3552226,25.1321983 37.8270976,25.5644473 C38.3611869,26.0536245 38.3611869,26.0536245 38.9082804,26.5547079 L39.2411442,26.8595959 L39.5783689,26.5595384 C39.6642955,26.4830637 39.6642955,26.4830637 39.7500718,26.4066598 C39.788181,26.3727064 39.788181,26.3727064 39.8262791,26.3387535 C39.8247268,26.340137 40.5023797,25.7357591 40.7004246,25.5594888 L40.8233075,25.4501166 L40.8572448,25.2891483 C41.0850741,24.2085263 41.201,23.1017967 41.201,21.981 C41.201,13.128198 34.0244828,5.952 25.172,5.952 C16.3193364,5.952 9.143,13.1273788 9.143,21.98 C9.143,30.832802 16.3195172,38.009 25.172,38.009 C28.4256404,38.009 31.5370257,37.0354812 34.1740231,35.2435529 L35.0225529,34.6669485 L34.0455946,34.3538541 C33.8436322,34.2891132 33.8436322,34.2891132 33.6424964,34.2245873 C32.7085677,33.9247568 32.2453929,33.7761621 31.7342632,33.6127481 L31.9564306,34.4203635 C32.809823,33.4560561 33.0957332,33.1330957 33.5129726,32.6623475 C33.6736642,32.4810721 33.6736642,32.4810721 33.8060681,32.3317726 L34.1059334,31.9936795 L33.7997797,31.6612699 C33.5467989,31.3865803 33.5467989,31.3865803 33.2967435,31.1150395 Z M33.0579319,31.6682274 C32.925422,31.8176465 32.925422,31.8176465 32.7931991,31.9668031 C32.3471437,32.4700619 32.0611412,32.7931265 31.2075694,33.7576365 L30.6994673,34.3317764 L31.4297368,34.5652519 C31.9403088,34.7284877 32.4029338,34.876906 33.3082403,35.1675528 C33.5382501,35.2413431 33.5382501,35.2413431 33.7404054,35.3061459 L33.6119769,34.4164471 C31.1394024,36.0966444 28.2234962,37.009 25.172,37.009 C16.871792,37.009 10.143,30.2805073 10.143,21.98 C10.143,13.6796934 16.8715913,6.952 25.172,6.952 C33.472208,6.952 40.201,13.6804927 40.201,21.981 C40.201,23.0323127 40.0923155,24.0699099 39.8787552,25.0828517 L40.0355754,24.8125112 C39.8370818,24.9891809 39.1590432,25.5939027 39.1609308,25.5922204 C39.1229035,25.6261102 39.1229035,25.6261102 39.0848758,25.6599911 C38.9993021,25.7362144 38.9993021,25.7362144 38.9136311,25.8124616 L39.246,26.186 L39.5837196,25.8172921 C39.0365831,25.3161695 39.0365831,25.3161695 38.5068322,24.8309661 C38.0307517,24.394865 37.8434765,24.2232837 37.5468383,23.9514009 L36.9788586,23.4308209 L36.7347581,24.1615873 C36.5136782,24.8234365 36.4427593,25.0352584 35.9686821,26.4504664 C35.9104039,26.6244423 35.9104039,26.6244423 35.8548825,26.7902154 L36.4300939,26.4593266 C35.6223345,26.2925634 34.9330383,26.150994 33.7283569,25.904175 L32.9799829,25.7508458 L33.1389449,26.4980436 C33.3687731,27.578702 33.483401,28.1176416 33.5834421,28.5873687 C33.6539897,28.9185246 33.6539897,28.9185246 33.7160021,29.2093122 L34.0517909,28.6290515 C32.8671381,29.0103944 32.1938131,29.2274149 31.3992273,29.4842333 L30.655964,29.7244637 L31.1853317,30.298851 C31.5946803,30.7430123 31.8758011,31.0482245 32.560881,31.7921706 C32.8111988,32.0639964 32.8111988,32.0639964 33.0642203,32.3387301 L33.0579319,31.6682274 Z" id="Shape" sketch:type="MSShapeGroup"></path>
                <path d="M47.3303233,30.2919473 L47.8480902,29.7211997 L47.1158991,29.4809258 C46.8044786,29.3787309 45.2471889,28.8664234 44.8203162,28.7265937 C44.7537423,28.7047897 44.7537423,28.7047897 44.6871403,28.6829911 C44.581308,28.6483683 44.581308,28.6483683 44.4752526,28.6137142 L44.8090235,29.1931924 C45.0080569,28.2590357 45.1840902,27.4308787 45.3811235,26.5017216 L45.5386377,25.7589263 L44.7940406,25.9076899 C44.601284,25.9462009 43.3953545,26.1868478 43.0529001,26.2553374 C43.0036271,26.2651926 43.0036271,26.2651926 42.9543603,26.2750497 C42.6404827,26.3378545 42.3556949,26.3949913 42.0783164,26.4508352 L42.6521899,26.7854541 C42.3579174,25.8864565 42.0900898,25.066952 41.8003378,24.1789065 L41.5633536,23.4525865 L40.9926111,23.9604794 C40.8422165,24.0943127 40.2019432,24.6646191 40.0346675,24.8134292 C39.8360818,24.9901809 39.1580432,25.5949027 39.1599308,25.5932204 C39.1219035,25.6271102 39.1219035,25.6271102 39.0838758,25.6609911 C38.9983021,25.7372144 38.9983021,25.7372144 38.9126311,25.8134616 L39.245,26.187 L39.5830049,25.8185537 C39.2662912,25.5280072 38.987009,25.2721572 38.50146,24.82761 C38.0280017,24.3941518 37.809112,24.1937035 37.5458383,23.9524009 L36.9778586,23.4318209 L36.7337581,24.1625873 C36.5126782,24.8244365 36.4417593,25.0362584 35.9676821,26.4514664 C35.9094039,26.6254423 35.9094039,26.6254423 35.8538825,26.7912154 L36.4285887,26.4602226 C35.7885435,26.3288004 35.7885435,26.3288004 35.1708206,26.201968 C34.607724,26.0863269 34.1733279,25.9970202 33.7278558,25.9052775 L32.9788061,25.7510146 L33.1379449,26.4990436 C33.3677731,27.579702 33.482401,28.1186416 33.5824421,28.5883687 C33.6529897,28.9195246 33.6529897,28.9195246 33.7150021,29.2103122 L34.0507909,28.6300515 C33.7000671,28.7429504 33.3627178,28.8516952 32.8761124,29.008664 C32.1469202,29.2439191 31.7963292,29.3569941 31.3986947,29.4850825 L30.6543909,29.7248419 L31.1843317,30.299851 C31.5936803,30.7440123 31.8748011,31.0492245 32.559881,31.7931706 C32.8101988,32.0649964 32.8101988,32.0649964 33.0632203,32.3397301 L33.0566903,31.6695 C32.9148865,31.8296368 32.9148865,31.8296368 32.7734401,31.9894373 C32.3761745,32.4383925 32.3761745,32.4383925 31.9955344,32.8686256 C31.6897055,33.214255 31.4489552,33.4861659 31.2068208,33.7593527 L30.6984678,34.3328991 L31.4282177,34.5670857 C32.1298292,34.7922423 32.6709879,34.9657408 33.7394054,35.3081459 C33.8453685,35.3417709 33.9473632,35.3744584 34.0499692,35.4076832 L34.204,34.932 L33.7147425,34.8289123 C33.521181,35.7475611 33.3412933,36.5978528 33.1409141,37.5411009 L32.981907,38.2895979 L33.7312528,38.1346405 C34.0661905,38.0653787 34.4022925,37.9956663 34.7894086,37.9152036 C35.2969972,37.8096441 35.2969972,37.8096441 35.7958894,37.7058305 C36.135981,37.6350929 36.135981,37.6350929 36.446648,37.5705587 L35.8696874,37.2361708 C35.9996863,37.6342934 35.9996863,37.6342934 36.1278436,38.0267003 C36.3811883,38.8025227 36.5451888,39.3057828 36.7284204,39.8703504 L36.9664689,40.6038181 L37.5389691,40.0872084 C38.3681256,39.3389986 38.9923082,38.7751911 39.608442,38.2177812 L38.9362679,38.2166099 C39.4198248,38.6572039 39.4198248,38.6572039 39.892317,39.0876842 C40.3151287,39.4728364 40.6492373,39.7769461 40.9836636,40.08097 L41.5518094,40.5974662 L41.7943908,39.8689662 C42.1063636,38.9320761 42.3847142,38.0950912 42.6685133,37.240598 L42.095133,37.5731279 C42.4064289,37.6359215 42.8265212,37.7205678 43.5341683,37.8631675 C44.042228,37.9656051 44.4205909,38.0420378 44.7957104,38.1180424 L45.543955,38.2696475 L45.3838867,37.5231676 C45.1409767,36.3903551 45.0492716,35.9620271 44.9283855,35.3945414 C44.9175606,35.3437197 44.9175606,35.3437197 44.9067384,35.2928871 C44.8585315,35.0663124 44.8585315,35.0663124 44.8101136,34.8382316 L44.4776982,35.4168112 C45.4998975,35.0794629 46.2899771,34.8186112 47.1128459,34.5467624 L47.8414806,34.3060455 L47.3269465,33.7367408 C47.0623409,33.4439688 46.7979371,33.1523811 46.4828708,32.805677 C46.3235906,32.6304024 45.7797454,32.0324588 45.682284,31.9252405 C45.6620164,31.9029434 45.6620164,31.9029434 45.6417505,31.8806461 C45.5514802,31.7813138 45.5514802,31.7813138 45.4611466,31.6818579 L45.4615674,32.3536781 C46.2088703,31.5287028 46.7522524,30.9291697 47.3303233,30.2919473 Z M44.4159759,32.0184229 L44.7208534,32.3541421 C44.8113398,32.4537662 44.8113398,32.4537662 44.9017295,32.5532299 C44.92202,32.5755542 44.92202,32.5755542 44.9423105,32.5978765 C45.0399202,32.7052579 45.583702,33.3031319 45.742804,33.4782104 C46.0573069,33.8242945 46.3211283,34.1152399 46.5850535,34.4072592 L46.7991541,33.5972376 C45.9763958,33.8690498 45.1864102,34.1298705 44.1643018,34.4671888 L43.7389208,34.6075739 L43.8318864,35.0457684 C43.8803791,35.2742014 43.8803791,35.2742014 43.9286541,35.5010962 C43.9394911,35.5519981 43.9394911,35.5519981 43.9503303,35.6028872 C44.0713436,36.1709699 44.1631058,36.5995649 44.4061133,37.7328324 L44.9942896,37.1379576 C44.6188187,37.0618818 44.240162,36.9853897 43.7745429,36.8915088 C43.0239934,36.7402593 42.6040364,36.6556402 42.292867,36.5928721 L41.8589957,36.505353 L41.7194867,36.925402 C41.4357699,37.7796476 41.1575008,38.6163871 40.8456092,39.5530338 L41.6563364,39.34103 C41.3221904,39.0372609 40.9883173,38.7333655 40.5785332,38.3600807 C40.093368,37.9180561 40.093368,37.9180561 39.6097321,37.4773901 L39.2741768,37.1716833 L38.937558,37.4762188 C38.3217809,38.0333061 37.6978971,38.5968437 36.8690309,39.3447916 L37.6795796,39.5616496 C37.4961244,38.9963931 37.3319596,38.4926286 37.0829249,37.7300047 C36.9502679,37.3238187 36.9502679,37.3238187 36.8203126,36.9258292 L36.6814521,36.5004778 L36.243352,36.5914413 C35.9324423,36.656026 35.9324423,36.656026 35.6238168,36.7202176 C35.0932556,36.8306194 35.0932556,36.8306194 34.5859065,36.9361291 C34.1990994,37.0165275 33.8633189,37.0861733 33.5287472,37.1553595 L34.1190859,37.7488991 C34.3195805,36.8051074 34.4995826,35.9542748 34.6932575,35.0350877 L34.7860062,34.5948993 L34.3580308,34.4563168 C34.2535333,34.4224795 34.149668,34.3891926 34.0432235,34.3554169 C32.9762948,34.0134868 32.435235,33.84002 31.7337823,33.6149143 L31.9551792,34.4226473 C32.1975259,34.1492211 32.4384475,33.8771165 32.744445,33.5312967 C33.125161,33.1009777 33.125161,33.1009777 33.5002387,32.6770922 C33.6636252,32.4925021 33.6636252,32.4925021 33.8053097,32.3325 L34.1047093,31.9944362 L33.7987797,31.6622699 C33.5457989,31.3875803 33.5457989,31.3875803 33.2957435,31.1160395 C32.610322,30.3717225 32.3291376,30.0664412 31.9196683,29.622149 L31.7053053,30.4369175 C32.1031421,30.308764 32.4539264,30.1956266 33.1731259,29.963595 C33.6695413,29.8034616 34.0067191,29.6947722 34.3572091,29.5819485 L34.7872483,29.4435177 L34.6929979,29.0016878 C34.631021,28.7110662 34.631021,28.7110662 34.5694518,28.4220651 C34.4604982,27.910493 34.3459051,27.3717167 34.1160551,26.2909564 L33.5261442,26.8847225 C33.9718225,26.9765076 34.4063895,27.0658495 34.9556355,27.1786462 C35.5874521,27.3083729 35.5874521,27.3083729 36.2274113,27.4397774 L36.6614147,27.5289114 L36.8021175,27.1087846 C36.8576245,26.9430549 36.8576245,26.9430549 36.9130323,26.7776476 C37.3900786,25.3535762 37.4610329,25.1416486 37.6822419,24.4794127 L36.8701617,24.6895991 C37.1336232,24.9310739 37.3526847,25.1316794 37.8229348,25.5622003 C38.3115019,26.0095108 38.5905882,26.2651813 38.9069951,26.5554463 L39.2398817,26.8608294 L39.5773689,26.5605384 C39.6632955,26.4840637 39.6632955,26.4840637 39.7490718,26.4076598 C39.787181,26.3737064 39.787181,26.3737064 39.8252791,26.3397535 C39.8237268,26.341137 40.5013797,25.7367591 40.6994246,25.5604888 C40.8669008,25.4115002 41.5072501,24.8411262 41.6573889,24.7075206 L41.325,24.334 L40.8496622,24.4890935 C41.1395136,25.3774433 41.4074396,26.1972493 41.7018101,27.0965459 L41.840051,27.5188696 L42.2756836,27.4311648 C42.5526461,27.3754047 42.8370529,27.3183443 43.1505643,27.2556128 C43.199784,27.2457651 43.199784,27.2457651 43.2490127,27.2359188 C43.5912132,27.16748 44.7970072,26.9268601 44.9899594,26.8883101 L44.4028765,26.2942784 C44.2059098,27.2231213 44.0299431,28.0509643 43.8309765,28.9848076 L43.7372633,29.4246477 L44.1647474,29.5642858 C44.2705393,29.5988539 44.2705393,29.5988539 44.3761305,29.6333978 C44.4425866,29.6551486 44.4425866,29.6551486 44.5090239,29.6769079 C44.9351591,29.816496 46.4920989,30.3286884 46.8041009,30.4310742 L46.5896767,29.6200527 C46.011418,30.257482 45.4678845,30.8571821 44.7204326,31.6823219 L44.4159759,32.0184229 Z" id="Shape" sketch:type="MSShapeGroup"></path>
                <path d="M42.586,32.289 C42.586,30.2256642 40.9133358,28.553 38.85,28.553 C36.7866642,28.553 35.114,30.2256642 35.114,32.289 C35.114,34.3523358 36.7866642,36.025 38.85,36.025 C40.9133358,36.025 42.586,34.3523358 42.586,32.289 Z M36.114,32.289 C36.114,30.7779489 37.3389489,29.553 38.85,29.553 C40.3610511,29.553 41.586,30.7779489 41.586,32.289 C41.586,33.8000511 40.3610511,35.025 38.85,35.025 C37.3389489,35.025 36.114,33.8000511 36.114,32.289 Z" id="Oval" sketch:type="MSShapeGroup"></path>
            </g>
        </g>
    </g>
</svg>