<?xml version="1.0" encoding="UTF-8" standalone="no"?>
<svg width="52px" height="51px" viewBox="0 0 52 51" version="1.1" xmlns="http://www.w3.org/2000/svg" xmlns:xlink="http://www.w3.org/1999/xlink" xmlns:sketch="http://www.bohemiancoding.com/sketch/ns">
    <!-- Generator: Sketch 3.2 (9961) - http://www.bohemiancoding.com/sketch -->
    <title>admisiones-examen</title>
    <desc>Created with Sketch.</desc>
    <defs></defs>
    <g id="Page-1" stroke="none" stroke-width="1" fill="none" fill-rule="evenodd" sketch:type="MSPage">
        <g id="Desktop" sketch:type="MSArtboardGroup" transform="translate(-370.000000, -181.000000)" fill="#666666">
            <g id="admisiones-examen" sketch:type="MSLayerGroup" transform="translate(371.000000, 181.000000)">
                <path d="M29.175,26.695 C29.175,22.2513169 25.5726831,18.649 21.129,18.649 C16.6853169,18.649 13.083,22.2513169 13.083,26.695 C13.083,31.1386831 16.6853169,34.741 21.129,34.741 C25.5726831,34.741 29.175,31.1386831 29.175,26.695 Z M14.083,26.695 C14.083,22.8036017 17.2376017,19.649 21.129,19.649 C25.0203983,19.649 28.175,22.8036017 28.175,26.695 C28.175,30.5863983 25.0203983,33.741 21.129,33.741 C17.2376017,33.741 14.083,30.5863983 14.083,26.695 Z" id="Oval" sketch:type="MSShapeGroup"></path>
                <path d="M22.572,25.283 C22.572,23.706227 21.293773,22.428 19.717,22.428 C18.140227,22.428 16.862,23.706227 16.862,25.283 C16.862,26.859773 18.140227,28.138 19.717,28.138 C21.293773,28.138 22.572,26.859773 22.572,25.283 Z M17.862,25.283 C17.862,24.2585118 18.6925118,23.428 19.717,23.428 C20.7414882,23.428 21.572,24.2585118 21.572,25.283 C21.572,26.3074882 20.7414882,27.138 19.717,27.138 C18.6925118,27.138 17.862,26.3074882 17.862,25.283 Z" id="Oval" sketch:type="MSShapeGroup"></path>
                <path d="M41.0674595,44.8385663 L41.7745405,44.1314337 L28.0975405,30.4554337 L27.3904595,31.1625663 L41.0674595,44.8385663 Z" id="Shape" sketch:type="MSShapeGroup"></path>
                <path d="M37.9584195,46.6825263 L37.9583084,45.9755849 L34.1233084,49.8135849 L34.830615,49.8135082 L29.091615,44.0725082 L29.0915534,44.7795534 L30.6775534,43.1935534 L29.9704466,42.4864466 L28.3844466,44.0724466 L28.0309548,44.4259384 L28.384385,44.7794918 L34.123385,50.5204918 L34.4770767,50.8743067 L34.8306916,50.5204151 L38.6656916,46.6824151 L39.0189415,46.3288889 L38.6655805,45.9754737 L25.6225805,32.9304737 L24.9154195,33.6375263 L37.9584195,46.6825263 Z" id="Shape" sketch:type="MSShapeGroup"></path>
                <path d="M31.2535766,46.9413167 L31.9604234,47.6486833 L33.3214234,46.2886833 L32.6145766,45.5813167 L31.2535766,46.9413167 Z" id="Shape" sketch:type="MSShapeGroup"></path>
                <path d="M8.858,9.04 L8.35886038,9.53999926 L41.4838604,9.48299926 L40.983,8.98298569 L40.982,43.9169857 L41.982,43.9170143 L41.983,8.98301431 L41.9830143,8.48213886 L41.4821396,8.48300074 L8.35713962,8.54000074 L7.858,8.54085964 L7.858,9.04 L7.858,50.792 L8.858,50.792 L8.858,9.04 Z" id="Shape" sketch:type="MSShapeGroup"></path>
                <path d="M50.233,1.292 L50.233,0.292 L0.537,0.292 L0.537,1.292 L50.233,1.292 Z" id="Shape" sketch:type="MSShapeGroup"></path>
                <path d="M0.733,0.792 L-0.267,0.792 L-0.267,50.465 L0.733,50.465 L0.733,0.792 Z" id="Shape" sketch:type="MSShapeGroup"></path>
                <path d="M50.733,0.792 L49.733,0.792 L49.733,50.465 L50.733,50.465 L50.733,0.792 Z" id="Shape" sketch:type="MSShapeGroup"></path>
                <path d="M8.671,50.965 L8.671,49.965 L0.233,49.965 L0.233,50.965 L8.671,50.965 Z" id="Shape" sketch:type="MSShapeGroup"></path>
                <path d="M36.171,16.304 L36.171,15.304 L13.671,15.304 L13.671,16.304 L36.171,16.304 Z" id="Shape" sketch:type="MSShapeGroup"></path>
                <path d="M36.171,21.292 L36.171,20.292 L25.858,20.292 L25.858,21.292 L36.171,21.292 Z" id="Shape" sketch:type="MSShapeGroup"></path>
                <path d="M16.171,21.292 L16.171,20.292 L13.671,20.292 L13.671,21.292 L16.171,21.292 Z" id="Shape" sketch:type="MSShapeGroup"></path>
                <path d="M36.171,26.604 L36.171,25.604 L28.358,25.604 L28.358,26.604 L36.171,26.604 Z" id="Shape" sketch:type="MSShapeGroup"></path>
                <path d="M36.171,32.229 L36.171,31.229 L28.671,31.229 L28.671,32.229 L36.171,32.229 Z" id="Shape" sketch:type="MSShapeGroup"></path>
                <path d="M36.171,37.542 L36.171,36.542 L33.983,36.542 L33.983,37.542 L36.171,37.542 Z" id="Shape" sketch:type="MSShapeGroup"></path>
                <path d="M28.983,37.542 L28.983,36.542 L13.358,36.542 L13.358,37.542 L28.983,37.542 Z" id="Shape" sketch:type="MSShapeGroup"></path>
                <path d="M26.171,43.792 L26.171,42.792 L13.358,42.792 L13.358,43.792 L26.171,43.792 Z" id="Shape" sketch:type="MSShapeGroup"></path>
                <path d="M15.546,32.229 L15.546,31.229 L13.358,31.229 L13.358,32.229 L15.546,32.229 Z" id="Shape" sketch:type="MSShapeGroup"></path>
            </g>
        </g>
    </g>
</svg>