<?xml version="1.0" encoding="UTF-8" standalone="no"?>
<svg width="52px" height="52px" viewBox="0 0 52 52" version="1.1" xmlns="http://www.w3.org/2000/svg" xmlns:xlink="http://www.w3.org/1999/xlink" xmlns:sketch="http://www.bohemiancoding.com/sketch/ns">
    <!-- Generator: Sketch 3.2 (9961) - http://www.bohemiancoding.com/sketch -->
    <title>admisiones-centro-pre</title>
    <desc>Created with Sketch.</desc>
    <defs></defs>
    <g id="Page-1" stroke="none" stroke-width="1" fill="none" fill-rule="evenodd" sketch:type="MSPage">
        <g id="Desktop" sketch:type="MSArtboardGroup" transform="translate(-534.000000, -181.000000)" fill="#666666">
            <g id="admisiones-centro-pre" sketch:type="MSLayerGroup" transform="translate(534.000000, 181.000000)">
                <path d="M18.117,25.899 L18.117,26.899 L42.461,26.899 L42.461,25.899 L18.117,25.899 Z" id="Shape" sketch:type="MSShapeGroup"></path>
                <path d="M43.033,10.094 L42.033,10.094 L42.033,41.711 L43.033,41.711 L43.033,10.094 Z" id="Shape" sketch:type="MSShapeGroup"></path>
                <path id="Shape" sketch:type="MSShapeGroup"></path>
                <path d="M18.363,18.071 L18.2170837,18.4240223 L26.1990837,10.4180223 L25.8450196,10.565 L51.3580196,10.564 L51.8587547,10.5639804 L51.8579994,10.0632459 L51.8439994,0.781245853 L51.8432464,0.282 L51.344,0.282 L1.369,0.282 L0.869,0.282 L0.869,0.782 L0.869,50.756 L0.869,51.256 L1.369,51.256 L51.344,51.256 L51.844,51.256 L51.844,50.756 L51.844,41.546 L51.844,41.046 L51.344,41.046 L17.863,41.046 L18.363,41.546 L18.363,18.071 Z M17.363,42.046 L17.863,42.046 L51.344,42.046 L50.844,41.546 L50.844,50.756 L51.344,50.256 L1.369,50.256 L1.869,50.756 L1.869,0.782 L1.369,1.282 L51.344,1.282 L50.8440006,0.782754147 L50.8580006,10.0647541 L51.3579804,9.564 L25.8449804,9.565 L25.6374453,9.56500813 L25.4909163,9.71197774 L17.5089163,17.7179777 L17.363,17.8643328 L17.363,18.071 L17.363,41.546 L17.363,42.046 Z" id="Shape" sketch:type="MSShapeGroup"></path>
                <path d="M39.265,26.333 L40.265,26.333 L40.265,9.899 L39.265,9.899 L39.265,26.333 Z" id="Shape" sketch:type="MSShapeGroup"></path>
                <path d="M35.394,24.743 L34.894,24.243 L34.894,28.37 L35.394,27.87 L33.167,27.87 L33.667,28.37 L33.667,24.243 L33.167,24.743 L35.394,24.743 Z M32.667,23.743 L32.667,24.243 L32.667,28.37 L32.667,28.87 L33.167,28.87 L35.394,28.87 L35.894,28.87 L35.894,28.37 L35.894,24.243 L35.894,23.743 L35.394,23.743 L33.167,23.743 L32.667,23.743 Z" id="Rectangle-path" sketch:type="MSShapeGroup"></path>
                <path d="M26.093,24.743 L25.593,24.243 L25.593,28.37 L26.093,27.87 L23.866,27.87 L24.366,28.37 L24.366,24.243 L23.866,24.743 L26.093,24.743 Z M23.366,23.743 L23.366,24.243 L23.366,28.37 L23.366,28.87 L23.866,28.87 L26.093,28.87 L26.593,28.87 L26.593,28.37 L26.593,24.243 L26.593,23.743 L26.093,23.743 L23.866,23.743 L23.366,23.743 Z" id="Rectangle-path" sketch:type="MSShapeGroup"></path>
                <path d="M47.962,17.243 L47.962,16.243 L42.526,16.243 L42.526,17.243 L47.962,17.243 Z" id="Shape" sketch:type="MSShapeGroup"></path>
                <path d="M47.962,32.962 L47.962,31.962 L42.526,31.962 L42.526,32.962 L47.962,32.962 Z" id="Shape" sketch:type="MSShapeGroup"></path>
                <path id="Shape" sketch:type="MSShapeGroup"></path>
                <path d="M51.369,13.575 L51.369,12.575 L42.526,12.575 L42.526,13.575 L51.369,13.575 Z" id="Shape" sketch:type="MSShapeGroup"></path>
                <path d="M51.369,29.294 L51.369,28.294 L42.526,28.294 L42.526,29.294 L51.369,29.294 Z" id="Shape" sketch:type="MSShapeGroup"></path>
            </g>
        </g>
    </g>
</svg>