<?xml version="1.0" encoding="UTF-8" standalone="no"?>
<svg width="52px" height="52px" viewBox="0 0 52 52" version="1.1" xmlns="http://www.w3.org/2000/svg" xmlns:xlink="http://www.w3.org/1999/xlink" xmlns:sketch="http://www.bohemiancoding.com/sketch/ns">
    <!-- Generator: Sketch 3.2 (9961) - http://www.bohemiancoding.com/sketch -->
    <title>admisiones-primeros-puestos</title>
    <desc>Created with Sketch.</desc>
    <defs></defs>
    <g id="Page-1" stroke="none" stroke-width="1" fill="none" fill-rule="evenodd" sketch:type="MSPage">
        <g id="Desktop" sketch:type="MSArtboardGroup" transform="translate(-535.000000, -98.000000)" fill="#666666">
            <g id="admisiones-primeros-puestos" sketch:type="MSLayerGroup" transform="translate(535.000000, 98.000000)">
                <path d="M27.167,22.667 L27.167,21.4598932 L26.3134466,22.3134466 L22.5674466,26.0594466 L23.2745534,26.7665534 L27.0205534,23.0205534 L26.167,22.667 L26.167,32.694 L27.167,32.694 L27.167,22.667 Z" id="Shape" sketch:type="MSShapeGroup"></path>
                <path d="M30.79,33.586 L30.79,32.586 L22.533,32.586 L22.533,33.586 L30.79,33.586 Z" id="Shape" sketch:type="MSShapeGroup"></path>
                <path d="M25.807,8.413 C29.6769759,8.413 32.813,5.27730886 32.813,1.408 L31.813,1.408 C31.813,4.72500034 29.1247149,7.413 25.807,7.413 C22.4910251,7.413 19.8048468,4.72568022 19.8029999,1.40772168 L18.8030001,1.40827832 C18.8051542,5.2780846 21.938738,8.413 25.807,8.413 Z" id="Shape" sketch:type="MSShapeGroup"></path>
                <path d="M0.308,51.409 L0.308,51.909 L0.808,51.909 L50.808,51.909 L51.308,51.909 L51.308,51.409 L51.308,1.408 L51.308,0.908 L50.808,0.908 L40.467,0.908 L40.30665,0.908 L40.1762075,1.00125717 L36.6262075,3.53925717 L36.2650162,3.79748356 L36.4787325,4.1866691 L38.5797325,8.0126691 L38.9333728,7.27921381 L34.8863728,7.97421381 L34.4731019,8.04518571 L34.4710062,8.46450117 L34.4490062,12.8665012 L35.0858157,12.3880827 L30.8888157,11.1940827 L30.4616249,11.0725516 L30.2905701,11.482432 L28.6095701,15.510432 L29.4032885,15.3293901 L26.1392885,12.4263901 L25.8067962,12.1306716 L25.4744841,12.4265925 L22.2144841,15.3295925 L23.0083314,15.5101962 L21.3253314,11.4831962 L21.1542528,11.0738476 L20.7274566,11.1950053 L16.5284566,12.3870053 L17.1649999,12.8682274 L17.1669999,8.47022738 L17.1671917,8.04860224 L16.7516533,7.97721829 L12.6826533,7.27821829 L13.0361926,8.01180544 L15.1381926,4.18680544 L15.3521257,3.79751224 L14.9907383,3.53921842 L11.4397383,1.00121842 L11.3093133,0.908 L11.149,0.908 L0.808,0.908 L0.308,0.908 L0.308,1.408 L0.308,51.409 Z M0.808,1.908 L11.149,1.908 L10.8582617,1.81478158 L14.4092617,4.35278158 L14.2618074,3.70519456 L12.1598074,7.53019456 L11.8219416,8.14500752 L12.5133467,8.26378171 L16.5823467,8.96278171 L16.1670001,8.46977262 L16.1650001,12.8677726 L16.164699,13.5297802 L16.8015434,13.3489947 L21.0005434,12.1569947 L20.4026686,11.8688038 L22.0856686,15.8958038 L22.355986,16.5426061 L22.8795159,16.0764075 L26.1395159,13.1734075 L25.4747115,13.1736099 L28.7387115,16.0766099 L29.2624711,16.5424414 L29.5324299,15.895568 L31.2134299,11.867568 L30.6151843,12.1559173 L34.8121843,13.3499173 L35.445702,13.5301461 L35.4489938,12.8714988 L35.4709938,8.46949883 L35.0556272,8.95978619 L39.1026272,8.26478619 L39.7938498,8.14608105 L39.4562675,7.5313309 L37.3552675,3.7053309 L37.2077925,4.35274283 L40.7577925,1.81474283 L40.467,1.908 L50.808,1.908 L50.308,1.408 L50.308,51.409 L50.808,50.909 L0.808,50.909 L1.308,51.409 L1.308,1.408 L0.808,1.908 Z" id="Shape" sketch:type="MSShapeGroup"></path>
                <path d="M18.581,44.6511085 L18.5812618,45.857592 L19.434501,45.0046058 L26.180501,38.2606058 L25.4730524,38.2601587 L32.1880524,44.9901587 L33.042,45.8460139 L33.042,44.637 L33.042,12.393 L32.042,12.393 L32.042,44.637 L32.8959476,44.2838413 L26.1809476,37.5538413 L25.8274471,37.1995511 L25.473499,37.5533942 L18.727499,44.2973942 L19.581,44.6508915 L19.574,12.3938915 L18.574,12.3941085 L18.581,44.6511085 Z" id="Shape" sketch:type="MSShapeGroup"></path>
            </g>
        </g>
    </g>
</svg>